<?xml version="1.0" encoding="UTF-8" standalone="no"?>
<!-- Created with Inkscape (http://www.inkscape.org/) -->

<svg
   xmlns:dc="http://purl.org/dc/elements/1.1/"
   xmlns:cc="http://creativecommons.org/ns#"
   xmlns:rdf="http://www.w3.org/1999/02/22-rdf-syntax-ns#"
   xmlns:svg="http://www.w3.org/2000/svg"
   xmlns="http://www.w3.org/2000/svg"
   xmlns:sodipodi="http://sodipodi.sourceforge.net/DTD/sodipodi-0.dtd"
   xmlns:inkscape="http://www.inkscape.org/namespaces/inkscape"
   width="529.25"
   height="563.59375"
   id="svg2"
   version="1.1"
   inkscape:version="0.48.3.1 r9886"
   sodipodi:docname="Logo ENISo, Tunisie.svg">
  <defs
     id="defs4" />
  <sodipodi:namedview
     id="base"
     pagecolor="#ffffff"
     bordercolor="#666666"
     borderopacity="1.0"
     inkscape:pageopacity="0.0"
     inkscape:pageshadow="2"
     inkscape:zoom="0.49497475"
     inkscape:cx="349.24549"
     inkscape:cy="323.92437"
     inkscape:document-units="px"
     inkscape:current-layer="layer2"
     showgrid="false"
     fit-margin-top="0"
     fit-margin-left="0"
     fit-margin-right="0"
     fit-margin-bottom="0"
     inkscape:window-width="1366"
     inkscape:window-height="719"
     inkscape:window-x="0"
     inkscape:window-y="0"
     inkscape:window-maximized="1" />
  <metadata
     id="metadata7">
    <rdf:RDF>
      <cc:Work
         rdf:about="">
        <dc:format>image/svg+xml</dc:format>
        <dc:type
           rdf:resource="http://purl.org/dc/dcmitype/StillImage" />
        <dc:title></dc:title>
      </cc:Work>
    </rdf:RDF>
  </metadata>
  <g
     inkscape:groupmode="layer"
     id="layer2"
     inkscape:label="TExte"
     transform="translate(-101.5625,-192.75)">
    <g
       transform="matrix(1.9237633,0,0,1.9237633,-62.040085,-165.85275)"
       style="font-size:40px;font-style:normal;font-weight:normal;line-height:125%;letter-spacing:0px;word-spacing:0px;fill:#379dfe;fill-opacity:1;stroke:none;font-family:Sans"
       id="flowRoot3028">
      <path
         d="m 201.7158,261.93213 13.17815,14.83385 0,-10.28316 c -2e-5,-1.43457 -0.22985,-2.40467 -0.68945,-2.91032 -0.63037,-0.682 -1.6875,-1.01125 -3.17141,-0.98775 l 0,-0.65262 8.82481,0 0,0.65262 c -1.12938,0.12937 -1.89106,0.29987 -2.28499,0.51151 -0.38086,0.19992 -0.6829,0.53506 -0.90614,1.00538 -0.21012,0.45862 -0.31518,1.25235 -0.31516,2.38118 l 0,19.91369 -0.66974,0 -18.06331,-19.91369 0,15.20426 c 0,1.37579 0.348,2.30475 1.04401,2.78686 0.70914,0.48211 1.51677,0.72317 2.42288,0.72317 l 0.63035,0 0,0.65262 -9.47486,0 0,-0.65262 c 1.47079,-0.0117 2.49511,-0.28222 3.07293,-0.81137 0.57781,-0.52914 0.86673,-1.4287 0.86673,-2.69866 l 0,-16.8799 -0.57126,-0.63498 c -0.56469,-0.63496 -1.06371,-1.0524 -1.49707,-1.25232 -0.43337,-0.19988 -1.05714,-0.31159 -1.87133,-0.33513 l 0,-0.65262 9.47486,0"
         style="font-variant:normal;font-weight:bold;font-stretch:normal;text-align:center;text-anchor:middle;fill:#379dfe;font-family:Times New Roman;-inkscape-font-specification:Times New Roman"
         id="path3037"
         inkscape:connector-curvature="0" />
      <path
         d="m 233.85391,287.89557 -0.0882,0.62332 -13.71106,-1.94019 0.0882,-0.62332 0.87023,0.12314 c 0.76066,0.10764 1.38973,0.0764 1.88723,-0.0938 0.35745,-0.1098 0.65345,-0.34286 0.88797,-0.69917 0.17996,-0.24946 0.35099,-0.94699 0.51309,-2.09254 l 2.1264,-15.02698 c 0.16528,-1.16799 0.19769,-1.90804 0.0972,-2.22013 -0.1005,-0.31205 -0.35482,-0.6058 -0.76297,-0.88123 -0.39366,-0.28481 -0.95792,-0.47921 -1.69279,-0.58321 l -0.87023,-0.12314 0.0882,-0.62332 13.71106,1.94019 -0.0882,0.62332 -0.87023,-0.12314 c -0.76068,-0.10763 -1.38974,-0.0764 -1.88723,0.0938 -0.35747,0.10982 -0.6599,0.34197 -0.90731,0.69643 -0.17997,0.2495 -0.35101,0.94701 -0.5131,2.09255 l -2.1264,15.02698 c -0.16529,1.16802 -0.19769,1.90806 -0.0972,2.22013 0.11337,0.31389 0.3669,0.61325 0.76057,0.89807 0.40814,0.27541 0.97965,0.46512 1.71453,0.56911 l 0.87023,0.12314"
         style="font-variant:normal;font-weight:bold;font-stretch:normal;text-align:center;text-anchor:middle;fill:#379dfe;font-family:Times New Roman;-inkscape-font-specification:Times New Roman"
         id="path3039"
         inkscape:connector-curvature="0"
         inkscape:transform-center-x="-16.297728"
         inkscape:transform-center-y="-20.106703" />
      <path
         d="m 261.36979,273.17494 -3.92522,7.06058 -0.68931,-0.40757 c 0.70551,-1.93512 0.73162,-3.80844 0.0783,-5.61995 -0.63608,-1.81513 -1.69384,-3.1601 -3.17329,-4.0349 -1.14325,-0.67596 -2.21781,-0.93083 -3.2237,-0.76458 -0.98866,0.16265 -1.69819,0.60793 -2.12859,1.33585 -0.27281,0.46138 -0.39761,0.94107 -0.3744,1.43906 0.0401,0.67407 0.27939,1.45898 0.71786,2.35473 0.32672,0.64981 1.18816,1.96864 2.58433,3.95647 1.95824,2.77683 3.08727,4.97341 3.3871,6.58972 0.28858,1.6097 0.0267,3.10146 -0.7856,4.47532 -1.03059,1.74291 -2.66403,2.8042 -4.90035,3.18385 -2.21908,0.37603 -4.47184,-0.11194 -6.75829,-1.46389 -0.71732,-0.42414 -1.35602,-0.89171 -1.91606,-1.40276 -0.56005,-0.51104 -1.21291,-1.23607 -1.95857,-2.1751 -0.41675,-0.52316 -0.79884,-0.88746 -1.14629,-1.0929 -0.29142,-0.17231 -0.66027,-0.25203 -1.10654,-0.23917 -0.44629,0.0129 -0.89457,0.16982 -1.34486,0.47089 l -0.62206,-0.36781 4.65576,-7.87396 0.62205,0.36781 c -0.81628,2.50616 -0.86946,4.75783 -0.15952,6.75501 0.7272,1.99357 1.90338,3.47082 3.52857,4.43177 1.2553,0.74224 2.43772,1.01935 3.54726,0.83135 1.12072,-0.18139 1.92661,-0.6873 2.41766,-1.51776 0.29097,-0.49212 0.42716,-1.05501 0.40856,-1.68869 -0.007,-0.62703 -0.1813,-1.31792 -0.5216,-2.07264 -0.3343,-0.76496 -1.04416,-1.91805 -2.12956,-3.45926 -1.52187,-2.15901 -2.54273,-3.835 -3.0626,-5.02797 -0.51989,-1.19296 -0.78695,-2.34022 -0.80118,-3.44178 -0.003,-1.09491 0.28339,-2.12936 0.8593,-3.10337 0.98206,-1.66089 2.48553,-2.68143 4.5104,-3.0616 2.02484,-0.38013 4.0516,0.0296 6.0803,1.22906 0.73971,0.43741 1.40854,0.94356 2.00647,1.51849 0.454,0.43452 0.95647,1.04296 1.50738,1.8253 0.56814,0.77874 1.00354,1.25757 1.30618,1.4365 0.29138,0.17231 0.56967,0.22612 0.83479,0.16151 0.26509,-0.0646 0.6554,-0.36657 1.17093,-0.90584 l 0.50436,0.29823"
         style="font-variant:normal;font-weight:bold;font-stretch:normal;text-align:center;text-anchor:middle;fill:#379dfe;font-family:Times New Roman;-inkscape-font-specification:Times New Roman"
         id="path3041"
         inkscape:connector-curvature="0" />
      <path
         d="m 269.11157,287.13335 c 2.03353,1.06676 3.31728,2.57335 3.85125,4.51975 0.54008,1.94993 0.27859,3.85294 -0.78446,5.70903 -0.9082,1.58567 -2.17128,2.71504 -3.78925,3.38813 -2.14444,0.89394 -4.3383,0.69848 -6.58158,-0.58634 -2.24945,-1.28836 -3.55227,-3.04665 -3.90849,-5.27489 -0.28113,-1.76077 0.0517,-3.46781 0.99867,-5.12109 1.06307,-1.85609 2.57833,-3.041 4.54581,-3.55474 1.97712,-0.51634 3.86648,-0.20963 5.66805,0.92015 m -0.2273,0.65338 c -1.14317,-0.65473 -2.34724,-0.56896 -3.61222,0.25732 -1.03467,0.68071 -2.06594,1.91836 -3.0938,3.71299 -1.22147,2.13267 -1.74948,3.92384 -1.584,5.37353 0.11408,1.01215 0.64129,1.7875 1.58164,2.32609 0.63303,0.36256 1.24958,0.51164 1.84967,0.44722 0.76612,-0.0836 1.54618,-0.46934 2.34015,-1.15729 0.79748,-0.69411 1.59399,-1.73566 2.38955,-3.12465 0.94688,-1.65327 1.50078,-2.97662 1.66167,-3.97005 0.16437,-0.99957 0.10368,-1.80565 -0.18208,-2.41825 -0.27966,-0.60906 -0.72985,-1.09137 -1.35058,-1.44691"
         style="font-variant:normal;font-weight:bold;font-stretch:normal;text-align:center;text-anchor:middle;fill:#379dfe;font-family:Times New Roman;-inkscape-font-specification:Times New Roman"
         id="path3043"
         inkscape:connector-curvature="0" />
    </g>
    <g
       id="g3181"
       transform="translate(5.038885,-92.142857)">
      <g
         id="text3045"
         style="font-size:26.93058395px;font-style:normal;font-weight:normal;line-height:125%;letter-spacing:0px;word-spacing:0px;fill:#4d6e93;fill-opacity:1;stroke:none;font-family:Sans"
         transform="scale(0.9125658,1.0958114)">
        <path
           id="path3056"
           style="font-variant:normal;font-weight:bold;font-stretch:normal;text-align:start;line-height:125%;writing-mode:lr-tb;text-anchor:start;fill:#4d6e93;font-family:Mashq;-inkscape-font-specification:Mashq Bold"
           d="m 590.64424,700.89582 c 0,-1.33654 -0.17455,-2.32399 -0.52365,-2.96236 -0.19949,-0.36903 -0.50869,-0.67325 -0.92761,-0.91265 l 0,-0.1945 c 0.52864,-0.30918 0.86277,-0.50867 1.00242,-0.59845 0.49871,-0.31916 0.82786,-0.59346 0.98745,-0.82288 0.16956,-0.23937 0.44385,-0.56852 0.82288,-0.98746 0,2e-5 0.32416,-0.35905 0.97249,-1.07722 l 0.28427,0 0,17.38519 c -10e-6,1.57594 0.39398,2.74293 1.18195,3.50097 0.56853,0.55856 1.22185,0.83784 1.95995,0.83784 l 2.06468,0 c -0.31919,0.28926 -0.94757,0.57352 -1.88514,0.8528 -0.93759,0.28926 -1.73553,0.43388 -2.39383,0.43389 -1.04731,-10e-6 -1.88515,-0.36905 -2.51352,-1.10715 -0.68823,-0.80792 -1.03234,-1.97491 -1.03234,-3.50098 l 0,-10.84704"
           inkscape:connector-curvature="0" />
        <path
           id="path3058"
           style="font-variant:normal;font-weight:bold;font-stretch:normal;text-align:start;line-height:125%;writing-mode:lr-tb;text-anchor:start;fill:#4d6e93;font-family:Mashq;-inkscape-font-specification:Mashq Bold"
           d="m 582.35349,713.71777 0,-2.88755 1.57095,0 0,-9.9344 c -10e-6,-1.33654 -0.16957,-2.32399 -0.50869,-2.96236 -0.19949,-0.36903 -0.50869,-0.67325 -0.92761,-0.91265 l 0,-0.1945 c 0.52863,-0.30918 0.86277,-0.50867 1.00241,-0.59845 0.49872,-0.31916 0.82787,-0.59346 0.98746,-0.82288 0.16956,-0.23937 0.44385,-0.56852 0.82288,-0.98746 -10e-6,2e-5 0.32416,-0.35905 0.97249,-1.07722 l 0.28427,0 0,20.37747 -4.20416,0"
           inkscape:connector-curvature="0" />
        <path
           id="path3060"
           style="font-variant:normal;font-weight:bold;font-stretch:normal;text-align:start;line-height:125%;writing-mode:lr-tb;text-anchor:start;fill:#4d6e93;font-family:Mashq;-inkscape-font-specification:Mashq Bold"
           d="m 577.87584,709.76795 c -1e-5,-0.69819 -0.34911,-1.04729 -1.0473,-1.0473 -0.69821,10e-6 -1.04731,0.34911 -1.0473,1.0473 -10e-6,0.70818 0.34909,1.06227 1.0473,1.06227 0.69819,0 1.04729,-0.35409 1.0473,-1.06227 m 2.63321,1.06227 1.84026,0 0,2.88755 -11.04154,0 0,-2.88755 1.84026,0 0,-1.31661 c -10e-6,-0.9276 0.36904,-1.73053 1.10714,-2.40879 0.74807,-0.67825 1.60586,-1.01737 2.57337,-1.01738 l 3.68051,0 0,4.74278"
           inkscape:connector-curvature="0" />
        <path
           id="path3062"
           style="font-variant:normal;font-weight:bold;font-stretch:normal;text-align:start;line-height:125%;writing-mode:lr-tb;text-anchor:start;fill:#4d6e93;font-family:Mashq;-inkscape-font-specification:Mashq Bold"
           d="m 565.51932,710.83022 c 0.26928,0 0.48871,-0.0349 0.6583,-0.10473 0.2593,-0.11969 0.38897,-0.30422 0.389,-0.55358 -3e-5,-0.2693 -0.0898,-0.44385 -0.26931,-0.52365 -0.17956,-0.0898 -0.43889,-0.13465 -0.77799,-0.13465 l -18.04349,0.015 c -1.04731,1e-5 -1.96993,-0.27927 -2.76787,-0.83784 -0.56854,-0.38899 -1.05728,-0.90267 -1.46622,-1.54103 0,1e-5 -0.13964,-0.28426 -0.41892,-0.8528 l 2.16941,-2.18437 c 0.0798,0.21945 0.15958,0.43389 0.23938,0.64334 0.24935,0.49873 0.58848,0.8977 1.01738,1.19692 0.60842,0.43887 1.36148,0.65831 2.25918,0.6583 l 17.5348,0 c 0.9176,10e-6 1.67066,0.26931 2.25918,0.80792 0.59842,0.53862 0.89765,1.23682 0.89768,2.0946 l 0,1.31661 2.10957,0 0,2.88755 -33.66323,0 0,-0.28426 c 0.38899,-0.18951 0.85778,-0.51867 1.40637,-0.98746 0.0399,-0.0499 0.48874,-0.45881 1.34653,-1.22684 0.31917,-0.29922 0.64832,-0.72313 0.98745,-1.27172 0.12967,-0.19948 0.31918,-0.51866 0.56854,-0.95753 l 0.1945,0 c 0.38899,0.67826 0.84282,1.14206 1.36149,1.39141 0.63835,0.29924 1.46621,0.44885 2.4836,0.44885 l 19.52467,0"
           inkscape:connector-curvature="0" />
        <path
           id="path3064"
           style="font-variant:normal;font-weight:bold;font-stretch:normal;text-align:start;line-height:125%;writing-mode:lr-tb;text-anchor:start;fill:#4d6e93;font-family:Mashq;-inkscape-font-specification:Mashq Bold"
           d="m 535.05246,713.71777 c -10e-6,0.76802 -0.19451,1.60088 -0.5835,2.49856 -0.44885,1.06725 -1.0872,1.93501 -1.91506,2.60329 -0.99743,0.81789 -2.15944,1.22683 -3.48601,1.22684 l -1.0473,0 0,-0.26931 c 1.3166,-0.41892 2.35392,-1.15203 3.11197,-2.19933 0.85779,-1.19691 1.28668,-2.69804 1.28669,-4.50339 l 0,-1.79537 c -1e-5,-1.32658 -0.16957,-2.30904 -0.50869,-2.9474 -0.19949,-0.37902 -0.50869,-0.68822 -0.92761,-0.92761 l 0,-0.1945 c 0.51866,-0.3092 0.84781,-0.50868 0.98745,-0.59846 0.50869,-0.30919 0.84283,-0.58349 1.00242,-0.82288 0.16956,-0.23937 0.44385,-0.56852 0.82288,-0.98745 -10e-6,1e-5 0.32416,-0.35907 0.97249,-1.07723 l 0.28427,0 0,9.99424"
           inkscape:connector-curvature="0" />
        <path
           id="path3066"
           style="font-variant:normal;font-weight:bold;font-stretch:normal;text-align:start;line-height:125%;writing-mode:lr-tb;text-anchor:start;fill:#4d6e93;font-family:Mashq;-inkscape-font-specification:Mashq Bold"
           d="m 512.76157,710.83022 c -10e-6,-0.77799 -0.10972,-1.36648 -0.32915,-1.76545 -0.1197,-0.23938 -0.48875,-0.52864 -1.10715,-0.86777 l 0,-0.19449 c 0.51866,-0.3092 0.84781,-0.50869 0.98745,-0.59846 0.49871,-0.31917 0.83285,-0.59347 1.00242,-0.82288 0.16956,-0.23938 0.44385,-0.56853 0.82288,-0.98746 -10e-6,10e-6 0.32416,-0.35906 0.97249,-1.07722 l 0.28427,0 0,6.31373 2.63321,0 c -1e-5,-1.14704 -0.17456,-1.98987 -0.52365,-2.52849 -0.16957,-0.25932 -0.47877,-0.51367 -0.92761,-0.76303 l 0,-0.1945 c 0.52863,-0.30919 0.86277,-0.50868 1.00242,-0.59846 0.4987,-0.30919 0.82786,-0.58348 0.98745,-0.82287 0.16956,-0.23938 0.44385,-0.56853 0.82288,-0.98746 -1e-5,10e-6 0.32416,-0.35906 0.9725,-1.07722 l 0.29922,0 0,6.97203 2.09461,0 0,-0.32916 c -2e-5,-1.3166 -0.16958,-2.25917 -0.50869,-2.82771 -0.15961,-0.2693 -0.46881,-0.53361 -0.92761,-0.79295 l 0,-0.1945 c 0.51865,-0.3092 0.8478,-0.50868 0.98745,-0.59846 0.4987,-0.30919 0.83284,-0.58349 1.00242,-0.82288 0.16955,-0.23937 0.44384,-0.56852 0.82288,-0.98745 -2e-5,10e-6 0.32415,-0.35907 0.97249,-1.07723 l 0.28427,0 0,10.51789 -16.83162,0 0,-2.88755 4.20417,0"
           inkscape:connector-curvature="0" />
        <path
           id="path3068"
           style="font-variant:normal;font-weight:bold;font-stretch:normal;text-align:start;line-height:125%;writing-mode:lr-tb;text-anchor:start;fill:#4d6e93;font-family:Mashq;-inkscape-font-specification:Mashq Bold"
           d="m 504.80653,698.63665 c 0,0.31919 -0.11471,0.59348 -0.34411,0.82288 -0.22942,0.22942 -0.50371,0.34412 -0.82288,0.34411 -0.31918,10e-6 -0.59347,-0.11469 -0.82288,-0.34411 -0.22941,-0.2294 -0.34412,-0.50369 -0.34411,-0.82288 -1e-5,-0.32914 0.10971,-0.60842 0.32915,-0.83784 0.2294,-0.2294 0.50868,-0.3441 0.83784,-0.34412 0.32915,2e-5 0.60344,0.11472 0.82288,0.34412 0.2294,0.21945 0.34411,0.49873 0.34411,0.83784 m -2.76786,1.01737 c -1e-5,0.3192 -0.11471,0.59349 -0.34412,0.82288 -0.22941,0.22942 -0.50869,0.34413 -0.83784,0.34412 -0.31918,10e-6 -0.59846,-0.1147 -0.83784,-0.34412 -0.22941,-0.23937 -0.34411,-0.51366 -0.34411,-0.82288 0,-0.32913 0.1147,-0.60841 0.34411,-0.83784 0.22941,-0.22939 0.50869,-0.34409 0.83784,-0.34411 0.32915,2e-5 0.60843,0.11472 0.83784,0.34411 0.22941,0.22943 0.34411,0.50871 0.34412,0.83784 m 6.52318,14.06375 -9.47059,0 0,-3.94982 c 0,-0.95752 0.33414,-1.81032 1.00242,-2.5584 0.67825,-0.74807 1.48118,-1.1221 2.40879,-1.12211 l 1.22684,0 c -0.0997,-0.74806 -0.29923,-1.32657 -0.59846,-1.73553 -0.17954,-0.23937 -0.4289,-0.44883 -0.74807,-0.62838 l 0,-0.19449 c 0.53861,-0.31917 0.95753,-0.58349 1.25676,-0.79296 0.29922,-0.21942 0.54359,-0.43387 0.73311,-0.64334 0.13963,-0.1496 0.34909,-0.384 0.62838,-0.70319 0.16956,-0.19947 0.55855,-0.64832 1.16699,-1.34653 l 0.28427,0 0,10.7872 2.10956,0 0,2.88755 m -4.74277,-3.81516 c -10e-6,-0.6982 -0.34911,-1.0473 -1.0473,-1.0473 -0.69821,0 -1.04731,0.3491 -1.0473,1.0473 -1e-5,0.33913 0.0798,0.57851 0.23938,0.71815 0.15958,0.13964 0.42889,0.20946 0.80792,0.20946 0.36904,0 0.63336,-0.0648 0.79295,-0.1945 0.16956,-0.13964 0.25434,-0.38401 0.25435,-0.73311"
           inkscape:connector-curvature="0" />
        <path
           id="path3070"
           style="font-variant:normal;font-weight:bold;font-stretch:normal;text-align:start;line-height:125%;writing-mode:lr-tb;text-anchor:start;fill:#4d6e93;font-family:Mashq;-inkscape-font-specification:Mashq Bold"
           d="m 481.18614,700.89582 c 0,-1.33654 -0.17455,-2.32399 -0.52365,-2.96236 -0.19949,-0.36903 -0.50869,-0.67325 -0.92761,-0.91265 l 0,-0.1945 c 0.52864,-0.30918 0.86277,-0.50867 1.00242,-0.59845 0.49871,-0.31916 0.82786,-0.59346 0.98745,-0.82288 0.16956,-0.23937 0.44385,-0.56852 0.82288,-0.98746 0,2e-5 0.32416,-0.35905 0.97249,-1.07722 l 0.28427,0 0,17.38519 c 0,1.57594 0.39398,2.74293 1.18195,3.50097 0.56853,0.55856 1.22185,0.83784 1.95995,0.83784 l 2.06468,0 c -0.31919,0.28926 -0.94757,0.57352 -1.88514,0.8528 -0.93759,0.28926 -1.73553,0.43388 -2.39383,0.43389 -1.04731,-10e-6 -1.88515,-0.36905 -2.51352,-1.10715 -0.68823,-0.80792 -1.03234,-1.97491 -1.03234,-3.50098 l 0,-10.84704"
           inkscape:connector-curvature="0" />
        <path
           id="path3072"
           style="font-variant:normal;font-weight:bold;font-stretch:normal;text-align:start;line-height:125%;writing-mode:lr-tb;text-anchor:start;fill:#4d6e93;font-family:Mashq;-inkscape-font-specification:Mashq Bold"
           d="m 472.89539,713.71777 0,-2.88755 1.57095,0 0,-9.9344 c -10e-6,-1.33654 -0.16957,-2.32399 -0.50869,-2.96236 -0.19949,-0.36903 -0.50869,-0.67325 -0.92761,-0.91265 l 0,-0.1945 c 0.52864,-0.30918 0.86277,-0.50867 1.00241,-0.59845 0.49872,-0.31916 0.82787,-0.59346 0.98746,-0.82288 0.16956,-0.23937 0.44385,-0.56852 0.82288,-0.98746 0,2e-5 0.32416,-0.35905 0.97249,-1.07722 l 0.28427,0 0,20.37747 -4.20416,0"
           inkscape:connector-curvature="0" />
        <path
           id="path3074"
           style="font-variant:normal;font-weight:bold;font-stretch:normal;text-align:start;line-height:125%;writing-mode:lr-tb;text-anchor:start;fill:#4d6e93;font-family:Mashq;-inkscape-font-specification:Mashq Bold"
           d="m 472.9139,713.71777 -1.97491,0 c -10e-6,1.7854 -0.51368,3.25162 -1.54103,4.39867 -1.14705,1.2767 -2.76787,1.91505 -4.86246,1.91506 l -1.31661,0 0,-0.26931 c 1.27671,-0.40895 2.40879,-1.13707 3.39624,-2.18437 1.10715,-1.19691 1.66072,-2.4836 1.66072,-3.86005 l -1.0473,0 c -1.36648,0 -2.35393,-0.39897 -2.96236,-1.19691 -0.47877,-0.62838 -0.71815,-1.50113 -0.71815,-2.61825 0,-1.25676 0.37403,-2.26416 1.12211,-3.02221 0.6982,-0.6982 1.551,-1.0473 2.5584,-1.0473 0.97748,0 1.83028,0.32417 2.55841,0.97249 0.76801,0.67826 1.15202,1.53605 1.15203,2.57337 l 0,1.45126 1.97491,0 0,2.88755 m -4.63805,-3.94982 c 0,-0.69819 -0.3491,-1.04729 -1.0473,-1.0473 -0.6982,10e-6 -1.0473,0.34911 -1.0473,1.0473 0,0.70818 0.3491,1.06227 1.0473,1.06227 0.6982,0 1.0473,-0.35409 1.0473,-1.06227"
           inkscape:connector-curvature="0" />
        <path
           id="path3076"
           style="font-variant:normal;font-weight:bold;font-stretch:normal;text-align:start;line-height:125%;writing-mode:lr-tb;text-anchor:start;fill:#4d6e93;font-family:Mashq;-inkscape-font-specification:Mashq Bold"
           d="m 457.96342,710.17191 c -3e-5,-0.2693 -0.0948,-0.44385 -0.28427,-0.52365 -0.18954,-0.0898 -0.44887,-0.13465 -0.778,-0.13465 l -23.14534,0 0,1.31661 23.14534,0 c 0.27926,0 0.49869,-0.0349 0.65831,-0.10473 0.26927,-0.11969 0.40393,-0.30422 0.40396,-0.55358 m -28.93542,3.54586 0,-2.88755 2.10956,0 0,-9.9344 c 0,-1.33654 -0.17455,-2.32399 -0.52365,-2.96236 -0.19949,-0.36903 -0.50869,-0.67325 -0.92761,-0.91265 l 0,-0.1945 c 0.52864,-0.30918 0.86278,-0.50867 1.00242,-0.59845 0.49871,-0.31916 0.82786,-0.59346 0.98745,-0.82288 0.16956,-0.23937 0.44386,-0.56852 0.82288,-0.98746 0,2e-5 0.32416,-0.35905 0.9725,-1.07722 l 0.28426,0 0,13.27079 23.66899,0 c 0.88769,10e-6 1.63576,0.33913 2.24422,1.01738 0.6084,0.67826 0.91262,1.48119 0.91265,2.40879 l 0,3.68051 -31.55367,0"
           inkscape:connector-curvature="0" />
        <path
           id="path3078"
           style="font-variant:normal;font-weight:bold;font-stretch:normal;text-align:start;line-height:125%;writing-mode:lr-tb;text-anchor:start;fill:#4d6e93;font-family:Mashq;-inkscape-font-specification:Mashq Bold"
           d="m 424.81638,698.45711 c 0.35907,1e-5 0.66328,0.12968 0.91264,0.389 0.25933,0.24937 0.389,0.55358 0.389,0.91264 0,0.36907 -0.12967,0.67827 -0.389,0.92761 -0.24936,0.24937 -0.55357,0.37405 -0.91264,0.37404 -0.35908,1e-5 -0.66828,-0.12467 -0.92761,-0.37404 -0.24936,-0.24934 -0.37404,-0.55854 -0.37404,-0.92761 0,-0.35906 0.12468,-0.66327 0.37404,-0.91264 0.25933,-0.25932 0.56853,-0.38899 0.92761,-0.389 m 2.10956,12.37311 2.0946,0 0,2.88755 -8.40833,0 0,-2.88755 3.68052,0 0,-0.32916 c -1e-5,-1.3166 -0.16957,-2.25917 -0.50869,-2.82771 -0.15959,-0.2693 -0.47378,-0.53361 -0.94257,-0.79295 l 0,-0.1945 c 0.52863,-0.3092 0.86277,-0.50868 1.00241,-0.59846 0.49871,-0.30919 0.83285,-0.58349 1.00242,-0.82288 0.16956,-0.23937 0.44385,-0.56852 0.82288,-0.98745 -10e-6,10e-6 0.32416,-0.35907 0.97249,-1.07723 l 0.28427,0 0,7.63034"
           inkscape:connector-curvature="0" />
        <path
           id="path3080"
           style="font-variant:normal;font-weight:bold;font-stretch:normal;text-align:start;line-height:125%;writing-mode:lr-tb;text-anchor:start;fill:#4d6e93;font-family:Mashq;-inkscape-font-specification:Mashq Bold"
           d="m 418.77943,715.76749 c 0.32914,0 0.60842,0.1147 0.83784,0.34411 0.2294,0.22941 0.3441,0.50869 0.34411,0.83784 -1e-5,0.31918 -0.1197,0.59347 -0.35907,0.82288 -0.22942,0.22941 -0.50371,0.34411 -0.82288,0.34412 -0.30921,-10e-6 -0.5835,-0.11471 -0.82288,-0.34412 -0.22942,-0.22941 -0.34412,-0.5037 -0.34411,-0.82288 -10e-6,-0.31918 0.10971,-0.59846 0.32915,-0.83784 0.2294,-0.22941 0.50868,-0.34411 0.83784,-0.34411 m -2.78283,1.03234 c 0.32915,0 0.60843,0.10971 0.83784,0.32915 0.2294,0.22941 0.34411,0.50869 0.34411,0.83784 0,0.31917 -0.11471,0.59347 -0.34411,0.82288 -0.22941,0.2294 -0.50869,0.34411 -0.83784,0.34411 -0.31918,0 -0.59347,-0.11471 -0.82288,-0.34411 -0.22941,-0.22941 -0.34411,-0.50371 -0.34411,-0.82288 0,-0.32915 0.10971,-0.60843 0.32915,-0.83784 0.22941,-0.21944 0.50869,-0.32915 0.83784,-0.32915 m 2.51352,-5.96961 2.0946,0 0,2.88755 -8.40832,0 0,-2.88755 3.68051,0 0,-0.32916 c 0,-1.3166 -0.16957,-2.25917 -0.50869,-2.82771 -0.15959,-0.2693 -0.47378,-0.53361 -0.94257,-0.79295 l 0,-0.1945 c 0.52863,-0.3092 0.86277,-0.50868 1.00242,-0.59846 0.49871,-0.30919 0.83285,-0.58349 1.00241,-0.82288 0.16956,-0.23937 0.44385,-0.56852 0.82288,-0.98745 0,10e-6 0.32416,-0.35907 0.97249,-1.07723 l 0.28427,0 0,7.63034"
           inkscape:connector-curvature="0" />
        <path
           id="path3082"
           style="font-variant:normal;font-weight:bold;font-stretch:normal;text-align:start;line-height:125%;writing-mode:lr-tb;text-anchor:start;fill:#4d6e93;font-family:Mashq;-inkscape-font-specification:Mashq Bold"
           d="m 408.44551,698.63665 c -1e-5,0.31919 -0.11471,0.59348 -0.34411,0.82288 -0.22942,0.22942 -0.50371,0.34412 -0.82288,0.34411 -0.31918,10e-6 -0.59348,-0.11469 -0.82288,-0.34411 -0.22941,-0.2294 -0.34412,-0.50369 -0.34411,-0.82288 -1e-5,-0.32914 0.10971,-0.60842 0.32915,-0.83784 0.2294,-0.2294 0.50868,-0.3441 0.83784,-0.34412 0.32914,2e-5 0.60344,0.11472 0.82288,0.34412 0.2294,0.21945 0.3441,0.49873 0.34411,0.83784 m -2.76787,1.01737 c 0,0.3192 -0.1147,0.59349 -0.34411,0.82288 -0.22941,0.22942 -0.50869,0.34413 -0.83784,0.34412 -0.31918,10e-6 -0.59846,-0.1147 -0.83784,-0.34412 -0.22941,-0.23937 -0.34411,-0.51366 -0.34411,-0.82288 0,-0.32913 0.1147,-0.60841 0.34411,-0.83784 0.22941,-0.22939 0.50869,-0.34409 0.83784,-0.34411 0.32915,2e-5 0.60843,0.11472 0.83784,0.34411 0.22941,0.22943 0.34411,0.50871 0.34411,0.83784 m 6.52319,14.06375 -9.47059,0 0,-3.94982 c 0,-0.95752 0.33414,-1.81032 1.00242,-2.5584 0.67825,-0.74807 1.48118,-1.1221 2.40879,-1.12211 l 1.22684,0 c -0.0998,-0.74806 -0.29924,-1.32657 -0.59846,-1.73553 -0.17954,-0.23937 -0.4289,-0.44883 -0.74807,-0.62838 l 0,-0.19449 c 0.5386,-0.31917 0.95752,-0.58349 1.25676,-0.79296 0.29922,-0.21942 0.54359,-0.43387 0.73311,-0.64334 0.13963,-0.1496 0.34909,-0.384 0.62838,-0.70319 0.16955,-0.19947 0.55855,-0.64832 1.16699,-1.34653 l 0.28427,0 0,10.7872 2.10956,0 0,2.88755 m -4.74277,-3.81516 c -10e-6,-0.6982 -0.34911,-1.0473 -1.04731,-1.0473 -0.6982,0 -1.0473,0.3491 -1.0473,1.0473 0,0.33913 0.0798,0.57851 0.23939,0.71815 0.15958,0.13964 0.42889,0.20946 0.80791,0.20946 0.36905,0 0.63337,-0.0648 0.79296,-0.1945 0.16956,-0.13964 0.25434,-0.38401 0.25435,-0.73311"
           inkscape:connector-curvature="0" />
        <path
           id="path3084"
           style="font-variant:normal;font-weight:bold;font-stretch:normal;text-align:start;line-height:125%;writing-mode:lr-tb;text-anchor:start;fill:#4d6e93;font-family:Mashq;-inkscape-font-specification:Mashq Bold"
           d="m 388.42174,713.71777 0,-2.88755 1.57095,0 0,-9.9344 c 0,-1.33654 -0.16957,-2.32399 -0.50869,-2.96236 -0.19949,-0.36903 -0.50869,-0.67325 -0.92761,-0.91265 l 0,-0.1945 c 0.52864,-0.30918 0.86278,-0.50867 1.00242,-0.59845 0.49871,-0.31916 0.82786,-0.59346 0.98745,-0.82288 0.16956,-0.23937 0.44385,-0.56852 0.82288,-0.98746 0,2e-5 0.32416,-0.35905 0.97249,-1.07722 l 0.28427,0 0,20.37747 -4.20416,0"
           inkscape:connector-curvature="0" />
        <path
           id="path3086"
           style="font-variant:normal;font-weight:bold;font-stretch:normal;text-align:start;line-height:125%;writing-mode:lr-tb;text-anchor:start;fill:#4d6e93;font-family:Mashq;-inkscape-font-specification:Mashq Bold"
           d="m 382.10988,713.71777 0,-2.88755 1.84026,0 0,-9.9344 c -10e-6,-1.33654 -0.16957,-2.32399 -0.50869,-2.96236 -0.19949,-0.36903 -0.51368,-0.67325 -0.94257,-0.91265 l 0,-0.1945 c 0.52863,-0.30918 0.86277,-0.50867 1.00241,-0.59845 0.49871,-0.31916 0.83285,-0.59346 1.00242,-0.82288 0.16956,-0.23937 0.43886,-0.56852 0.80792,-0.98746 -10e-6,2e-5 0.32416,-0.35905 0.97249,-1.07722 l 0.29923,0 0,17.48992 1.84025,0 0,2.88755 -6.31372,0"
           inkscape:connector-curvature="0" />
        <path
           id="path3088"
           style="font-variant:normal;font-weight:bold;font-stretch:normal;text-align:start;line-height:125%;writing-mode:lr-tb;text-anchor:start;fill:#4d6e93;font-family:Mashq;-inkscape-font-specification:Mashq Bold"
           d="m 377.6322,709.76795 c 0,-0.69819 -0.3491,-1.04729 -1.0473,-1.0473 -0.6982,10e-6 -1.0473,0.34911 -1.0473,1.0473 0,0.70818 0.3491,1.06227 1.0473,1.06227 0.6982,0 1.0473,-0.35409 1.0473,-1.06227 m 2.63322,1.06227 1.84025,0 0,2.88755 -11.04154,0 0,-2.88755 1.84026,0 0,-1.31661 c 0,-0.9276 0.36905,-1.73053 1.10715,-2.40879 0.74806,-0.67825 1.60585,-1.01737 2.57336,-1.01738 l 3.68052,0 0,4.74278"
           inkscape:connector-curvature="0" />
        <path
           id="path3090"
           style="font-variant:normal;font-weight:bold;font-stretch:normal;text-align:start;line-height:125%;writing-mode:lr-tb;text-anchor:start;fill:#4d6e93;font-family:Mashq;-inkscape-font-specification:Mashq Bold"
           d="m 371.06156,713.71777 -2.7529,0 0,4.99712 -4.08448,0 c -0.94756,0 -1.75547,-0.33414 -2.42375,-1.00241 -0.6583,-0.66828 -0.98745,-1.4762 -0.98745,-2.42376 l 0,-1.57095 -2.10957,0 0,-2.88755 2.10957,0 0,-1.06227 c 0,-0.94755 0.32915,-1.75048 0.98745,-2.40879 0.66828,-0.66827 1.47619,-1.00241 2.42375,-1.00241 l 1.3615,0 c -0.10973,-0.75804 -0.3142,-1.33655 -0.61342,-1.73553 -0.16957,-0.24935 -0.41893,-0.45881 -0.74808,-0.62838 l 0,-0.20946 c 0.47876,-0.27927 0.87275,-0.52863 1.18196,-0.74807 0.31917,-0.2294 0.59346,-0.45382 0.82288,-0.67327 0.17953,-0.1895 0.46379,-0.50867 0.8528,-0.95753 0.30919,-0.36903 0.6184,-0.7331 0.92761,-1.09218 l 0.29923,0 0,10.51789 2.7529,0 0,2.88755 m -5.46092,-3.94982 c -10e-6,-0.69819 -0.34911,-1.04729 -1.0473,-1.0473 -0.69821,10e-6 -1.04731,0.34911 -1.0473,1.0473 -10e-6,0.70818 0.34909,1.06227 1.0473,1.06227 0.69819,0 1.04729,-0.35409 1.0473,-1.06227 m 0,4.99712 c -10e-6,-0.6982 -0.34911,-1.0473 -1.0473,-1.0473 -0.69821,0 -1.04731,0.3491 -1.0473,1.0473 -10e-6,0.70818 0.34909,1.06226 1.0473,1.06227 0.69819,-1e-5 1.04729,-0.35409 1.0473,-1.06227"
           inkscape:connector-curvature="0" />
        <path
           id="path3092"
           style="font-variant:normal;font-weight:bold;font-stretch:normal;text-align:start;line-height:125%;writing-mode:lr-tb;text-anchor:start;fill:#4d6e93;font-family:Mashq;-inkscape-font-specification:Mashq Bold"
           d="m 354.49178,698.45711 c 0.35907,1e-5 0.66328,0.12968 0.91264,0.389 0.25933,0.24937 0.389,0.55358 0.389,0.91264 0,0.36907 -0.12967,0.67827 -0.389,0.92761 -0.24936,0.24937 -0.55357,0.37405 -0.91264,0.37404 -0.35908,1e-5 -0.66828,-0.12467 -0.92761,-0.37404 -0.24936,-0.24934 -0.37404,-0.55854 -0.37404,-0.92761 0,-0.35906 0.12468,-0.66327 0.37404,-0.91264 0.25933,-0.25932 0.56853,-0.38899 0.92761,-0.389 m 2.10956,12.37311 2.0946,0 0,2.88755 -8.40833,0 0,-2.88755 3.68052,0 0,-0.32916 c -10e-6,-1.3166 -0.16957,-2.25917 -0.50869,-2.82771 -0.15959,-0.2693 -0.47378,-0.53361 -0.94257,-0.79295 l 0,-0.1945 c 0.52863,-0.3092 0.86277,-0.50868 1.00241,-0.59846 0.49871,-0.30919 0.83285,-0.58349 1.00242,-0.82288 0.16956,-0.23937 0.44385,-0.56852 0.82288,-0.98745 -1e-5,10e-6 0.32416,-0.35907 0.97249,-1.07723 l 0.28427,0 0,7.63034"
           inkscape:connector-curvature="0" />
        <path
           id="path3094"
           style="font-variant:normal;font-weight:bold;font-stretch:normal;text-align:start;line-height:125%;writing-mode:lr-tb;text-anchor:start;fill:#4d6e93;font-family:Mashq;-inkscape-font-specification:Mashq Bold"
           d="m 344.49917,710.83022 c 0.26928,0 0.48871,-0.0349 0.6583,-0.10473 0.25931,-0.11969 0.38897,-0.30422 0.389,-0.55358 -3e-5,-0.2693 -0.0898,-0.44385 -0.2693,-0.52365 -0.17957,-0.0898 -0.4389,-0.13465 -0.778,-0.13465 l -18.04349,0.015 c -1.04731,1e-5 -1.96993,-0.27927 -2.76787,-0.83784 -0.56854,-0.38899 -1.05728,-0.90267 -1.46622,-1.54103 0,1e-5 -0.13964,-0.28426 -0.41892,-0.8528 l 2.16941,-2.18437 c 0.0798,0.21945 0.15958,0.43389 0.23938,0.64334 0.24935,0.49873 0.58848,0.8977 1.01738,1.19692 0.60842,0.43887 1.36148,0.65831 2.25918,0.6583 l 17.5348,0 c 0.91761,10e-6 1.67066,0.26931 2.25918,0.80792 0.59842,0.53862 0.89765,1.23682 0.89768,2.0946 l 0,1.31661 2.10957,0 0,2.88755 -33.66323,0 0,-0.28426 c 0.38899,-0.18951 0.85778,-0.51867 1.40637,-0.98746 0.0399,-0.0499 0.48874,-0.45881 1.34653,-1.22684 0.31917,-0.29922 0.64832,-0.72313 0.98746,-1.27172 0.12966,-0.19948 0.31917,-0.51866 0.56853,-0.95753 l 0.1945,0 c 0.38899,0.67826 0.84282,1.14206 1.36149,1.39141 0.63835,0.29924 1.46621,0.44885 2.4836,0.44885 l 19.52467,0"
           inkscape:connector-curvature="0" />
        <path
           id="path3096"
           style="font-variant:normal;font-weight:bold;font-stretch:normal;text-align:start;line-height:125%;writing-mode:lr-tb;text-anchor:start;fill:#4d6e93;font-family:Mashq;-inkscape-font-specification:Mashq Bold"
           d="m 301.36699,710.83022 c 0,-0.77799 -0.10972,-1.36648 -0.32915,-1.76545 -0.1197,-0.23938 -0.48875,-0.52864 -1.10715,-0.86777 l 0,-0.19449 c 0.51866,-0.3092 0.84781,-0.50869 0.98746,-0.59846 0.49871,-0.31917 0.83285,-0.59347 1.00241,-0.82288 0.16956,-0.23938 0.44385,-0.56853 0.82288,-0.98746 0,10e-6 0.32416,-0.35906 0.9725,-1.07722 l 0.28426,0 0,6.31373 2.63322,0 c -10e-6,-1.14704 -0.17456,-1.98987 -0.52366,-2.52849 -0.16957,-0.25932 -0.47877,-0.51367 -0.9276,-0.76303 l 0,-0.1945 c 0.52862,-0.30919 0.86276,-0.50868 1.00241,-0.59846 0.49871,-0.30919 0.82786,-0.58348 0.98746,-0.82287 0.16955,-0.23938 0.44384,-0.56853 0.82288,-0.98746 -1e-5,10e-6 0.32415,-0.35906 0.97249,-1.07722 l 0.29923,0 0,6.97203 2.0946,0 0,-0.32916 c -2e-5,-1.3166 -0.16958,-2.25917 -0.50869,-2.82771 -0.1596,-0.2693 -0.4688,-0.53361 -0.92761,-0.79295 l 0,-0.1945 c 0.51865,-0.3092 0.8478,-0.50868 0.98746,-0.59846 0.4987,-0.30919 0.83283,-0.58349 1.00241,-0.82288 0.16955,-0.23937 0.44384,-0.56852 0.82288,-0.98745 -1e-5,10e-6 0.32415,-0.35907 0.97249,-1.07723 l 0.28427,0 0,10.51789 -16.83161,0 0,-2.88755 4.20416,0"
           inkscape:connector-curvature="0" />
        <path
           id="path3098"
           style="font-variant:normal;font-weight:bold;font-stretch:normal;text-align:start;line-height:125%;writing-mode:lr-tb;text-anchor:start;fill:#4d6e93;font-family:Mashq;-inkscape-font-specification:Mashq Bold"
           d="m 295.33005,715.76749 c 0.32914,0 0.60842,0.1147 0.83784,0.34411 0.2294,0.22941 0.3441,0.50869 0.34411,0.83784 -10e-6,0.31918 -0.1197,0.59347 -0.35907,0.82288 -0.22942,0.22941 -0.50371,0.34411 -0.82288,0.34412 -0.30921,-10e-6 -0.5835,-0.11471 -0.82288,-0.34412 -0.22941,-0.22941 -0.34412,-0.5037 -0.34411,-0.82288 -10e-6,-0.31918 0.10971,-0.59846 0.32915,-0.83784 0.2294,-0.22941 0.50868,-0.34411 0.83784,-0.34411 m -2.78283,1.03234 c 0.32915,0 0.60843,0.10971 0.83784,0.32915 0.22941,0.22941 0.34411,0.50869 0.34411,0.83784 0,0.31917 -0.1147,0.59347 -0.34411,0.82288 -0.22941,0.2294 -0.50869,0.34411 -0.83784,0.34411 -0.31918,0 -0.59347,-0.11471 -0.82288,-0.34411 -0.22941,-0.22941 -0.34411,-0.50371 -0.34411,-0.82288 0,-0.32915 0.10971,-0.60843 0.32915,-0.83784 0.22941,-0.21944 0.50869,-0.32915 0.83784,-0.32915 m 2.51352,-5.96961 2.0946,0 0,2.88755 -8.40832,0 0,-2.88755 3.68051,0 0,-0.32916 c 0,-1.3166 -0.16957,-2.25917 -0.50869,-2.82771 -0.15959,-0.2693 -0.47378,-0.53361 -0.94257,-0.79295 l 0,-0.1945 c 0.52864,-0.3092 0.86277,-0.50868 1.00242,-0.59846 0.49871,-0.30919 0.83285,-0.58349 1.00241,-0.82288 0.16956,-0.23937 0.44385,-0.56852 0.82288,-0.98745 0,10e-6 0.32416,-0.35907 0.9725,-1.07723 l 0.28426,0 0,7.63034"
           inkscape:connector-curvature="0" />
        <path
           id="path3100"
           style="font-variant:normal;font-weight:bold;font-stretch:normal;text-align:start;line-height:125%;writing-mode:lr-tb;text-anchor:start;fill:#4d6e93;font-family:Mashq;-inkscape-font-specification:Mashq Bold"
           d="m 278.73244,702.91562 c -2e-5,0.35908 -0.12968,0.66828 -0.389,0.92761 -0.24937,0.24936 -0.55358,0.37404 -0.91265,0.37403 -0.35908,10e-6 -0.66829,-0.12467 -0.92761,-0.37403 -0.24936,-0.25933 -0.37404,-0.56853 -0.37403,-0.92761 -10e-6,-0.35907 0.12467,-0.66328 0.37403,-0.91265 0.25932,-0.25932 0.56853,-0.38899 0.92761,-0.389 0.35907,10e-6 0.66328,0.12968 0.91265,0.389 0.25932,0.24937 0.38898,0.55358 0.389,0.91265 m 2.37887,12.11876 c 0.58846,0 1.08219,-0.17455 1.48118,-0.52365 0.40893,-0.33913 0.6134,-0.778 0.61342,-1.31661 l 0,-1.91506 c -2e-5,-1.32658 -0.16958,-2.30904 -0.50869,-2.9474 -0.1995,-0.37902 -0.50871,-0.68822 -0.92761,-0.92761 l 0,-0.1945 c 0.51865,-0.3092 0.8478,-0.50868 0.98745,-0.59846 0.50868,-0.30919 0.84281,-0.58349 1.00242,-0.82288 0.16954,-0.23937 0.44384,-0.56852 0.82288,-0.98745 -2e-5,1e-5 0.32414,-0.35907 0.97249,-1.07723 l 0.28427,0 0,7.10669 2.88756,0 0,2.88755 -2.88756,0 0,0.17954 c -2e-5,1.22684 -0.37904,2.20432 -1.13707,2.93244 -0.74809,0.72812 -1.77045,1.09218 -3.06709,1.09219 l -14.66221,0 0,-0.28427 c 0.389,-0.18952 0.8129,-0.47378 1.27172,-0.8528 0.11969,-0.0997 0.52365,-0.46381 1.21188,-1.09219 0.31917,-0.28925 0.64334,-0.66828 0.97249,-1.13707 0.2294,-0.31917 0.51367,-0.773 0.8528,-1.36149 l 0.1945,0 c 0.38899,0.67825 0.84282,1.14206 1.36149,1.39142 0.63835,0.29922 1.46621,0.44884 2.4836,0.44884 l 5.79008,0"
           inkscape:connector-curvature="0" />
        <path
           id="path3102"
           style="font-variant:normal;font-weight:bold;font-stretch:normal;text-align:start;line-height:125%;writing-mode:lr-tb;text-anchor:start;fill:#4d6e93;font-family:Mashq;-inkscape-font-specification:Mashq Bold"
           d="m 256.87402,713.71777 -6.31373,0 0,-2.88755 3.68051,0 0,-0.32916 c 0,-1.3166 -0.16956,-2.25917 -0.50868,-2.82771 -0.1596,-0.2693 -0.47379,-0.53361 -0.94257,-0.79295 l 0,-0.1945 c 0.52863,-0.3092 0.86277,-0.50868 1.00241,-0.59846 0.49871,-0.30919 0.83285,-0.58349 1.00242,-0.82288 0.16956,-0.23937 0.44385,-0.56852 0.82288,-0.98745 -10e-6,10e-6 0.32416,-0.35907 0.97249,-1.07723 l 0.28427,0 0,10.51789 m -2.57337,2.10957 c 0.35907,-1e-5 0.66329,0.12467 0.91265,0.37403 0.25932,0.25933 0.38899,0.56853 0.389,0.92761 -1e-5,0.35907 -0.12968,0.66329 -0.389,0.91265 -0.24936,0.25933 -0.55358,0.38899 -0.91265,0.389 -0.35908,-10e-6 -0.66828,-0.12967 -0.92761,-0.389 -0.24936,-0.24936 -0.37404,-0.55358 -0.37403,-0.91265 -1e-5,-0.35908 0.12467,-0.66828 0.37403,-0.92761 0.25933,-0.24936 0.56853,-0.37404 0.92761,-0.37403"
           inkscape:connector-curvature="0" />
        <path
           id="path3104"
           style="font-variant:normal;font-weight:bold;font-stretch:normal;text-align:start;line-height:125%;writing-mode:lr-tb;text-anchor:start;fill:#4d6e93;font-family:Mashq;-inkscape-font-specification:Mashq Bold"
           d="m 248.45634,710.83022 2.10956,0 0,2.88755 -18.94117,0 0,-2.88755 4.20416,0 c -1e-5,-0.77799 -0.10972,-1.36648 -0.32915,-1.76545 -0.1197,-0.23938 -0.48875,-0.52864 -1.10715,-0.86777 l 0,-0.19449 c 0.51866,-0.3092 0.84781,-0.50869 0.98746,-0.59846 0.49871,-0.31917 0.83284,-0.59347 1.00241,-0.82288 0.16956,-0.23938 0.44385,-0.56853 0.82288,-0.98746 0,10e-6 0.32416,-0.35906 0.97249,-1.07722 l 0.28427,0 0,6.31373 2.63321,0 c -1e-5,-1.14704 -0.17456,-1.98987 -0.52365,-2.52849 -0.16957,-0.25932 -0.47877,-0.51367 -0.92761,-0.76303 l 0,-0.1945 c 0.52863,-0.30919 0.86277,-0.50868 1.00242,-0.59846 0.49871,-0.30919 0.82786,-0.58348 0.98746,-0.82287 0.16955,-0.23938 0.44384,-0.56853 0.82287,-0.98746 -10e-6,10e-6 0.32416,-0.35906 0.9725,-1.07722 l 0.29923,0 0,6.97203 2.0946,0 0,-0.32916 c -2e-5,-1.3166 -0.16958,-2.25917 -0.50869,-2.82771 -0.1596,-0.2693 -0.46881,-0.53361 -0.92761,-0.79295 l 0,-0.1945 c 0.51865,-0.3092 0.8478,-0.50868 0.98745,-0.59846 0.4987,-0.30919 0.83284,-0.58349 1.00242,-0.82288 0.16955,-0.23937 0.44384,-0.56852 0.82288,-0.98745 -2e-5,10e-6 0.32415,-0.35907 0.97249,-1.07723 l 0.28427,0 0,7.63034"
           inkscape:connector-curvature="0" />
        <path
           id="path3106"
           style="font-variant:normal;font-weight:bold;font-stretch:normal;text-align:start;line-height:125%;writing-mode:lr-tb;text-anchor:start;fill:#4d6e93;font-family:Mashq;-inkscape-font-specification:Mashq Bold"
           d="m 231.64319,713.71777 -1.97491,0 c -1e-5,1.7854 -0.51368,3.25162 -1.54102,4.39867 -1.14705,1.2767 -2.76787,1.91505 -4.86247,1.91506 l -1.31661,0 0,-0.26931 c 1.27671,-0.40895 2.40879,-1.13707 3.39625,-2.18437 1.10714,-1.19691 1.66071,-2.4836 1.66072,-3.86005 l -1.0473,0 c -1.36648,0 -2.35394,-0.39897 -2.96237,-1.19691 -0.47876,-0.62838 -0.71815,-1.50113 -0.71815,-2.61825 0,-1.25676 0.37404,-2.26416 1.12211,-3.02221 0.6982,-0.6982 1.551,-1.0473 2.55841,-1.0473 0.97747,0 1.83027,0.32417 2.5584,0.97249 0.76801,0.67826 1.15202,1.53605 1.15203,2.57337 l 0,1.45126 1.97491,0 0,2.88755 m -4.63804,-3.94982 c -10e-6,-0.69819 -0.34911,-1.04729 -1.0473,-1.0473 -0.69821,10e-6 -1.04731,0.34911 -1.0473,1.0473 -1e-5,0.70818 0.34909,1.06227 1.0473,1.06227 0.69819,0 1.04729,-0.35409 1.0473,-1.06227"
           inkscape:connector-curvature="0" />
        <path
           id="path3108"
           style="font-variant:normal;font-weight:bold;font-stretch:normal;text-align:start;line-height:125%;writing-mode:lr-tb;text-anchor:start;fill:#4d6e93;font-family:Mashq;-inkscape-font-specification:Mashq Bold"
           d="m 206.68916,710.83022 c -10e-6,-0.77799 -0.10972,-1.36648 -0.32915,-1.76545 -0.1197,-0.23938 -0.48875,-0.52864 -1.10715,-0.86777 l 0,-0.19449 c 0.51866,-0.3092 0.84781,-0.50869 0.98745,-0.59846 0.49871,-0.31917 0.83285,-0.59347 1.00242,-0.82288 0.16956,-0.23938 0.44385,-0.56853 0.82288,-0.98746 -1e-5,10e-6 0.32416,-0.35906 0.97249,-1.07722 l 0.28427,0 0,6.31373 2.63321,0 c -1e-5,-1.14704 -0.17456,-1.98987 -0.52365,-2.52849 -0.16957,-0.25932 -0.47877,-0.51367 -0.92761,-0.76303 l 0,-0.1945 c 0.52863,-0.30919 0.86277,-0.50868 1.00242,-0.59846 0.4987,-0.30919 0.82786,-0.58348 0.98745,-0.82287 0.16956,-0.23938 0.44385,-0.56853 0.82288,-0.98746 -1e-5,10e-6 0.32416,-0.35906 0.9725,-1.07722 l 0.29923,0 0,6.97203 2.0946,0 0,-0.32916 c -2e-5,-1.3166 -0.16958,-2.25917 -0.50869,-2.82771 -0.1596,-0.2693 -0.46881,-0.53361 -0.92761,-0.79295 l 0,-0.1945 c 0.51865,-0.3092 0.8478,-0.50868 0.98745,-0.59846 0.4987,-0.30919 0.83284,-0.58349 1.00242,-0.82288 0.16955,-0.23937 0.44384,-0.56852 0.82288,-0.98745 -2e-5,10e-6 0.32415,-0.35907 0.97249,-1.07723 l 0.28427,0 0,10.51789 -16.83162,0 0,-2.88755 4.20417,0"
           inkscape:connector-curvature="0" />
        <path
           id="path3110"
           style="font-variant:normal;font-weight:bold;font-stretch:normal;text-align:start;line-height:125%;writing-mode:lr-tb;text-anchor:start;fill:#4d6e93;font-family:Mashq;-inkscape-font-specification:Mashq Bold"
           d="m 198.73411,698.63665 c 0,0.31919 -0.11471,0.59348 -0.34411,0.82288 -0.22941,0.22942 -0.50371,0.34412 -0.82288,0.34411 -0.31918,10e-6 -0.59347,-0.11469 -0.82288,-0.34411 -0.22941,-0.2294 -0.34412,-0.50369 -0.34411,-0.82288 -1e-5,-0.32914 0.10971,-0.60842 0.32915,-0.83784 0.2294,-0.2294 0.50868,-0.3441 0.83784,-0.34412 0.32915,2e-5 0.60344,0.11472 0.82288,0.34412 0.2294,0.21945 0.34411,0.49873 0.34411,0.83784 m -2.76786,1.01737 c -1e-5,0.3192 -0.11471,0.59349 -0.34412,0.82288 -0.22941,0.22942 -0.50869,0.34413 -0.83784,0.34412 -0.31918,10e-6 -0.59846,-0.1147 -0.83784,-0.34412 -0.22941,-0.23937 -0.34411,-0.51366 -0.34411,-0.82288 0,-0.32913 0.1147,-0.60841 0.34411,-0.83784 0.22941,-0.22939 0.50869,-0.34409 0.83784,-0.34411 0.32915,2e-5 0.60843,0.11472 0.83784,0.34411 0.22941,0.22943 0.34411,0.50871 0.34412,0.83784 m 6.52318,14.06375 -9.47058,0 0,-3.94982 c -10e-6,-0.95752 0.33413,-1.81032 1.00241,-2.5584 0.67825,-0.74807 1.48118,-1.1221 2.40879,-1.12211 l 1.22684,0 c -0.0998,-0.74806 -0.29923,-1.32657 -0.59846,-1.73553 -0.17954,-0.23937 -0.4289,-0.44883 -0.74807,-0.62838 l 0,-0.19449 c 0.53861,-0.31917 0.95753,-0.58349 1.25676,-0.79296 0.29922,-0.21942 0.54359,-0.43387 0.73311,-0.64334 0.13964,-0.1496 0.34909,-0.384 0.62838,-0.70319 0.16956,-0.19947 0.55855,-0.64832 1.16699,-1.34653 l 0.28427,0 0,10.7872 2.10956,0 0,2.88755 m -4.74277,-3.81516 c -1e-5,-0.6982 -0.34911,-1.0473 -1.0473,-1.0473 -0.69821,0 -1.04731,0.3491 -1.0473,1.0473 -1e-5,0.33913 0.0798,0.57851 0.23938,0.71815 0.15958,0.13964 0.42889,0.20946 0.80792,0.20946 0.36904,0 0.63336,-0.0648 0.79295,-0.1945 0.16956,-0.13964 0.25434,-0.38401 0.25435,-0.73311"
           inkscape:connector-curvature="0" />
      </g>
      <g
         id="text3049"
         style="font-size:22.72600174px;font-style:normal;font-weight:normal;line-height:125%;letter-spacing:0px;word-spacing:0px;fill:#4d6e93;fill-opacity:1;stroke:none;font-family:Sans"
         transform="scale(0.97609209,1.0244935)">
        <path
           id="path3113"
           style="font-variant:normal;font-weight:bold;font-stretch:normal;text-align:start;line-height:125%;writing-mode:lr-tb;text-anchor:start;fill:#4d6e93;font-family:Times New Roman;-inkscape-font-specification:Times New Roman"
           d="m 186.19373,800.03896 0,6.12537 0.29961,0 c 0.95431,1e-5 1.646,-0.2996 2.07508,-0.89883 0.42907,-0.59921 0.70278,-1.48325 0.82116,-2.65211 l 0.42167,0 0,7.87865 -0.42167,0 c -0.0888,-0.85814 -0.27743,-1.56093 -0.56593,-2.10837 -0.28113,-0.54743 -0.61033,-0.91362 -0.98761,-1.09858 -0.37729,-0.19233 -0.92473,-0.2885 -1.64231,-0.28851 l 0,4.23893 c 0,0.82856 0.0333,1.33531 0.0999,1.52025 0.074,0.18494 0.20713,0.3366 0.39948,0.45496 0.19234,0.11837 0.50305,0.17755 0.93212,0.17755 l 0.89884,0 c 1.40557,0 2.53003,-0.3255 3.37339,-0.97651 0.85073,-0.651 1.46105,-1.6423 1.83095,-2.97391 l 0.41058,0 -0.6769,4.78267 -13.00531,0 0,-0.41058 0.49935,0 c 0.43647,0 0.78786,-0.0777 1.05418,-0.23303 0.19234,-0.10357 0.3403,-0.28111 0.44387,-0.53264 0.0814,-0.17754 0.12206,-0.6436 0.12207,-1.39818 l 0,-9.89824 c -10e-6,-0.68058 -0.0185,-1.09856 -0.0555,-1.25392 -0.074,-0.25891 -0.21084,-0.45865 -0.41058,-0.59922 -0.28111,-0.20713 -0.6658,-0.3107 -1.15405,-0.31071 l -0.49935,0 0,-0.41058 12.59473,0 0,4.44977 -0.42167,0 c -0.21455,-1.08746 -0.51786,-1.86793 -0.90993,-2.3414 -0.3847,-0.47344 -0.93213,-0.82114 -1.64231,-1.04309 -0.41428,-0.13314 -1.19105,-0.19972 -2.3303,-0.19974 l -1.55354,0 m 4.74938,-6.0033 -3.673,3.85055 -0.95431,0 1.28721,-3.85055 3.3401,0"
           inkscape:connector-curvature="0" />
        <path
           id="path3115"
           style="font-variant:normal;font-weight:bold;font-stretch:normal;text-align:start;line-height:125%;writing-mode:lr-tb;text-anchor:start;fill:#4d6e93;font-family:Times New Roman;-inkscape-font-specification:Times New Roman"
           d="m 204.41448,811.54622 0.344,0.26632 c -0.48826,0.91733 -1.09858,1.60162 -1.83095,2.05289 -0.72499,0.44386 -1.49806,0.6658 -2.31921,0.6658 -1.38339,0 -2.48936,-0.52155 -3.31791,-1.56463 -0.82855,-1.04309 -1.24283,-2.29701 -1.24282,-3.76178 -1e-5,-1.41297 0.37728,-2.6558 1.13186,-3.72848 0.90992,-1.29461 2.16385,-1.94191 3.76177,-1.94192 1.07267,1e-5 1.92342,0.27003 2.55224,0.81005 0.6362,0.54005 0.9543,1.14297 0.95431,1.80876 -1e-5,0.42168 -0.12947,0.75828 -0.38838,1.0098 -0.25153,0.25153 -0.58444,0.3773 -0.9987,0.37729 -0.43648,1e-5 -0.79897,-0.14425 -1.08748,-0.43277 -0.28112,-0.28851 -0.45497,-0.80265 -0.52154,-1.54244 -0.0444,-0.46605 -0.15166,-0.79155 -0.32181,-0.97651 -0.17015,-0.18493 -0.36989,-0.27741 -0.59922,-0.27742 -0.35509,10e-6 -0.6584,0.18866 -0.90992,0.56594 -0.38469,0.56963 -0.57704,1.44257 -0.57703,2.61881 -1e-5,0.97652 0.15535,1.91233 0.46606,2.80746 0.3107,0.88774 0.73607,1.54984 1.27612,1.98631 0.40687,0.3181 0.88773,0.47716 1.44257,0.47715 0.36248,10e-6 0.70648,-0.0851 1.03199,-0.25522 0.32549,-0.17015 0.71018,-0.49195 1.15405,-0.96541"
           inkscape:connector-curvature="0" />
        <path
           id="path3117"
           style="font-variant:normal;font-weight:bold;font-stretch:normal;text-align:start;line-height:125%;writing-mode:lr-tb;text-anchor:start;fill:#4d6e93;font-family:Times New Roman;-inkscape-font-specification:Times New Roman"
           d="m 210.91714,803.53442 c 0.90252,1e-5 1.74217,0.23304 2.51894,0.69909 0.77676,0.46607 1.36489,1.12817 1.76438,1.9863 0.40686,0.85815 0.6103,1.79767 0.61031,2.81856 -1e-5,1.47216 -0.3736,2.70389 -1.12076,3.69519 -0.90254,1.19845 -2.14907,1.79767 -3.73958,1.79767 -1.56094,0 -2.76308,-0.54744 -3.60642,-1.64231 -0.84335,-1.09487 -1.26503,-2.36359 -1.26503,-3.80616 0,-1.48695 0.42907,-2.78156 1.28722,-3.88384 0.86554,-1.10966 2.04918,-1.66449 3.55094,-1.6645 m 0.0444,0.78786 c -0.37729,10e-6 -0.70279,0.14427 -0.9765,0.43277 -0.26633,0.28113 -0.44388,0.84336 -0.53265,1.6867 -0.0814,0.83595 -0.12206,2.0011 -0.12206,3.49545 0,0.79157 0.0518,1.53135 0.15535,2.21934 0.0814,0.52524 0.25522,0.92472 0.52155,1.19844 0.26631,0.27372 0.56962,0.41058 0.90993,0.41058 0.33289,0 0.61031,-0.0925 0.83225,-0.27742 0.2885,-0.25152 0.48085,-0.60292 0.57703,-1.05419 0.14794,-0.70278 0.22192,-2.12316 0.22193,-4.26112 -1e-5,-1.25762 -0.0703,-2.11946 -0.21084,-2.58553 -0.14056,-0.47345 -0.3477,-0.81744 -0.62141,-1.03199 -0.19235,-0.15534 -0.44388,-0.23302 -0.75458,-0.23303"
           inkscape:connector-curvature="0" />
        <path
           id="path3119"
           style="font-variant:normal;font-weight:bold;font-stretch:normal;text-align:start;line-height:125%;writing-mode:lr-tb;text-anchor:start;fill:#4d6e93;font-family:Times New Roman;-inkscape-font-specification:Times New Roman"
           d="m 221.44789,799.17342 0,12.89434 c -1e-5,0.73239 0.0851,1.20215 0.25522,1.40928 0.17014,0.19974 0.50304,0.31441 0.9987,0.344 l 0,0.39948 -5.60382,0 0,-0.39948 c 0.45866,-0.0148 0.79896,-0.14796 1.02089,-0.39948 0.14796,-0.17015 0.22193,-0.62141 0.22194,-1.3538 l 0,-10.74158 c -1e-5,-0.72497 -0.0851,-1.18733 -0.25523,-1.38709 -0.17015,-0.20712 -0.49935,-0.32549 -0.9876,-0.35509 l 0,-0.41058 4.3499,0"
           inkscape:connector-curvature="0" />
        <path
           id="path3121"
           style="font-variant:normal;font-weight:bold;font-stretch:normal;text-align:start;line-height:125%;writing-mode:lr-tb;text-anchor:start;fill:#4d6e93;font-family:Times New Roman;-inkscape-font-specification:Times New Roman"
           d="m 232.47799,808.66108 -5.6926,0 c 0.0666,1.376 0.43277,2.46347 1.09857,3.26243 0.51044,0.61402 1.12446,0.92102 1.84205,0.92102 0.44386,0 0.84704,-0.12206 1.20954,-0.36619 0.36248,-0.25152 0.75086,-0.69909 1.16515,-1.3427 l 0.37729,0.24413 c -0.56224,1.14666 -1.18366,1.96041 -1.86425,2.44127 -0.6806,0.47346 -1.46846,0.71019 -2.36359,0.71019 -1.53874,0 -2.70389,-0.59183 -3.49545,-1.77547 -0.63621,-0.95431 -0.95432,-2.13796 -0.95432,-3.55094 0,-1.73108 0.46606,-3.10706 1.39818,-4.12796 0.93952,-1.02829 2.03809,-1.54243 3.29572,-1.54244 1.05048,1e-5 1.9604,0.43278 2.72978,1.29831 0.77676,0.85815 1.19473,2.13427 1.25393,3.82835 m -2.72979,-0.74347 c 0,-1.19104 -0.0666,-2.0085 -0.19974,-2.45237 -0.12577,-0.44386 -0.32551,-0.78046 -0.59922,-1.0098 -0.15536,-0.13315 -0.3625,-0.19973 -0.62141,-0.19974 -0.38469,10e-6 -0.6991,0.18865 -0.94322,0.56593 -0.43647,0.65841 -0.65471,1.56094 -0.6547,2.70759 l 0,0.38839 3.01829,0"
           inkscape:connector-curvature="0" />
        <path
           id="path3123"
           style="font-variant:normal;font-weight:bold;font-stretch:normal;text-align:start;line-height:125%;writing-mode:lr-tb;text-anchor:start;fill:#4d6e93;font-family:Times New Roman;-inkscape-font-specification:Times New Roman"
           d="m 244.34034,799.17342 7.42368,9.33231 0,-6.46937 c -2e-5,-0.90251 -0.12948,-1.51283 -0.38839,-1.83095 -0.3551,-0.42905 -0.95062,-0.63619 -1.78656,-0.62141 l 0,-0.41058 4.97131,0 0,0.41058 c -0.63622,0.0814 -1.0653,0.18866 -1.28721,0.3218 -0.21456,0.12578 -0.3847,0.33662 -0.51045,0.63251 -0.11838,0.28853 -0.17756,0.78788 -0.17755,1.49805 l 0,12.52816 -0.37729,0 -10.17565,-12.52816 0,9.56534 c -1e-5,0.86555 0.19604,1.44997 0.58812,1.75328 0.39948,0.30331 0.85444,0.45496 1.36489,0.45496 l 0.3551,0 0,0.41058 -5.33751,0 0,-0.41058 c 0.82856,-0.007 1.40558,-0.17754 1.73109,-0.51044 0.3255,-0.3329 0.48825,-0.89883 0.48825,-1.6978 l 0,-10.61952 -0.3218,-0.39948 c -0.31811,-0.39947 -0.59923,-0.66209 -0.84335,-0.78786 -0.24413,-0.12575 -0.59552,-0.19603 -1.05419,-0.21084 l 0,-0.41058 5.33751,0"
           inkscape:connector-curvature="0" />
        <path
           id="path3125"
           style="font-variant:normal;font-weight:bold;font-stretch:normal;text-align:start;line-height:125%;writing-mode:lr-tb;text-anchor:start;fill:#4d6e93;font-family:Times New Roman;-inkscape-font-specification:Times New Roman"
           d="m 261.59568,812.68918 c -1.26503,1.11706 -2.40059,1.6756 -3.40668,1.6756 -0.59183,0 -1.08378,-0.19235 -1.47586,-0.57703 -0.39209,-0.39208 -0.58813,-0.88034 -0.58813,-1.46476 0,-0.79156 0.3403,-1.50175 1.0209,-2.13057 0.68059,-0.6362 2.16385,-1.47955 4.44977,-2.53004 l 0,-1.04309 c -1e-5,-0.78415 -0.0444,-1.27611 -0.13316,-1.47585 -0.0814,-0.20713 -0.24044,-0.38468 -0.47716,-0.53265 -0.23674,-0.15534 -0.50306,-0.23302 -0.79896,-0.23303 -0.48086,1e-5 -0.87664,0.10728 -1.18735,0.32181 -0.19234,0.13317 -0.28851,0.28852 -0.28851,0.46606 0,0.15536 0.10356,0.3477 0.31071,0.57703 0.28111,0.31811 0.42167,0.62512 0.42167,0.92102 0,0.3625 -0.13686,0.67321 -0.41058,0.93212 -0.26632,0.25153 -0.61772,0.3773 -1.05418,0.37729 -0.46606,1e-5 -0.85815,-0.14055 -1.17625,-0.42167 -0.31071,-0.28111 -0.46606,-0.61032 -0.46606,-0.98761 0,-0.53263 0.21084,-1.03938 0.63251,-1.52024 0.42167,-0.48825 1.0098,-0.86184 1.76437,-1.12077 0.75457,-0.25891 1.53874,-0.38837 2.3525,-0.38838 0.9839,1e-5 1.76066,0.21084 2.3303,0.63251 0.57702,0.41428 0.95061,0.86555 1.12077,1.35379 0.10356,0.31072 0.15534,1.0246 0.15535,2.14166 l 0,4.0281 c -10e-6,0.47346 0.0185,0.77307 0.0555,0.89883 0.037,0.11836 0.0925,0.20714 0.16645,0.26632 0.074,0.0592 0.15905,0.0888 0.25523,0.0888 0.19233,0 0.38837,-0.13686 0.58812,-0.41058 l 0.3329,0.26632 c -0.3699,0.54744 -0.75458,0.94692 -1.15405,1.19845 -0.39209,0.24412 -0.83966,0.36619 -1.3427,0.36619 -0.59183,0 -1.05419,-0.13686 -1.38709,-0.41058 -0.3329,-0.28112 -0.53634,-0.70279 -0.61031,-1.26502 m 0,-0.81006 0,-3.47326 c -0.89514,0.52525 -1.56094,1.08748 -1.99741,1.68669 -0.28851,0.39949 -0.43277,0.80267 -0.43277,1.20954 0,0.3403 0.12206,0.63991 0.36619,0.89883 0.18494,0.19975 0.44387,0.29962 0.77677,0.29961 0.36989,1e-5 0.79896,-0.20713 1.28722,-0.62141"
           inkscape:connector-curvature="0" />
        <path
           id="path3127"
           style="font-variant:normal;font-weight:bold;font-stretch:normal;text-align:start;line-height:125%;writing-mode:lr-tb;text-anchor:start;fill:#4d6e93;font-family:Times New Roman;-inkscape-font-specification:Times New Roman"
           d="m 271.34966,800.05006 0,3.79506 2.46346,0 0,1.09858 -2.46346,0 0,6.40278 c -10e-6,0.59922 0.0259,0.98761 0.0777,1.16515 0.0592,0.17015 0.15905,0.31071 0.29961,0.42168 0.14056,0.10357 0.27002,0.15535 0.38839,0.15535 0.48085,0 0.93581,-0.36619 1.36489,-1.09857 l 0.3329,0.24412 c -0.59923,1.42038 -1.57204,2.13057 -2.91843,2.13057 -0.6584,0 -1.21694,-0.18125 -1.6756,-0.54374 -0.45126,-0.36989 -0.73978,-0.78047 -0.86554,-1.23173 -0.074,-0.25152 -0.11097,-0.93212 -0.11096,-2.04179 l 0,-5.60382 -1.3538,0 0,-0.38839 c 0.93212,-0.65839 1.72368,-1.35008 2.37469,-2.07508 0.6584,-0.72497 1.23173,-1.53503 1.71999,-2.43017 l 0.36619,0"
           inkscape:connector-curvature="0" />
        <path
           id="path3129"
           style="font-variant:normal;font-weight:bold;font-stretch:normal;text-align:start;line-height:125%;writing-mode:lr-tb;text-anchor:start;fill:#4d6e93;font-family:Times New Roman;-inkscape-font-specification:Times New Roman"
           d="m 277.31968,798.81833 c 0.48085,1e-5 0.88773,0.17016 1.22063,0.51044 0.3329,0.33292 0.49935,0.7361 0.49935,1.20954 0,0.47347 -0.17015,0.87665 -0.51045,1.20954 -0.3329,0.33291 -0.73608,0.49936 -1.20953,0.49935 -0.47347,10e-6 -0.87665,-0.16644 -1.20954,-0.49935 -0.33291,-0.33289 -0.49936,-0.73607 -0.49935,-1.20954 -1e-5,-0.47344 0.16644,-0.87662 0.49935,-1.20954 0.33289,-0.34028 0.73607,-0.51043 1.20954,-0.51044 m 1.55353,5.02679 0,8.22264 c 0,0.73239 0.0851,1.20215 0.25522,1.40928 0.17015,0.19974 0.50305,0.31441 0.99871,0.344 l 0,0.39948 -5.60383,0 0,-0.39948 c 0.45866,-0.0148 0.79896,-0.14796 1.0209,-0.39948 0.14795,-0.17015 0.22193,-0.62141 0.22193,-1.3538 l 0,-6.05878 c 0,-0.73238 -0.0851,-1.19844 -0.25522,-1.39819 -0.17015,-0.20712 -0.49936,-0.32549 -0.98761,-0.35509 l 0,-0.41058 4.3499,0"
           inkscape:connector-curvature="0" />
        <path
           id="path3131"
           style="font-variant:normal;font-weight:bold;font-stretch:normal;text-align:start;line-height:125%;writing-mode:lr-tb;text-anchor:start;fill:#4d6e93;font-family:Times New Roman;-inkscape-font-specification:Times New Roman"
           d="m 286.01947,803.53442 c 0.90252,1e-5 1.74217,0.23304 2.51894,0.69909 0.77676,0.46607 1.36489,1.12817 1.76438,1.9863 0.40686,0.85815 0.6103,1.79767 0.61031,2.81856 -10e-6,1.47216 -0.37359,2.70389 -1.12076,3.69519 -0.90254,1.19845 -2.14907,1.79767 -3.73958,1.79767 -1.56094,0 -2.76308,-0.54744 -3.60642,-1.64231 -0.84335,-1.09487 -1.26503,-2.36359 -1.26502,-3.80616 -1e-5,-1.48695 0.42907,-2.78156 1.28721,-3.88384 0.86554,-1.10966 2.04918,-1.66449 3.55094,-1.6645 m 0.0444,0.78786 c -0.37729,10e-6 -0.70279,0.14427 -0.9765,0.43277 -0.26633,0.28113 -0.44387,0.84336 -0.53264,1.6867 -0.0814,0.83595 -0.12207,2.0011 -0.12207,3.49545 0,0.79157 0.0518,1.53135 0.15536,2.21934 0.0814,0.52524 0.25522,0.92472 0.52154,1.19844 0.26632,0.27372 0.56962,0.41058 0.90993,0.41058 0.33289,0 0.61031,-0.0925 0.83225,-0.27742 0.28851,-0.25152 0.48085,-0.60292 0.57703,-1.05419 0.14794,-0.70278 0.22192,-2.12316 0.22193,-4.26112 -10e-6,-1.25762 -0.0703,-2.11946 -0.21084,-2.58553 -0.14056,-0.47345 -0.3477,-0.81744 -0.62141,-1.03199 -0.19235,-0.15534 -0.44387,-0.23302 -0.75458,-0.23303"
           inkscape:connector-curvature="0" />
        <path
           id="path3133"
           style="font-variant:normal;font-weight:bold;font-stretch:normal;text-align:start;line-height:125%;writing-mode:lr-tb;text-anchor:start;fill:#4d6e93;font-family:Times New Roman;-inkscape-font-specification:Times New Roman"
           d="m 296.72777,803.84512 0,1.3427 c 0.53264,-0.57702 1.04308,-0.99499 1.53134,-1.25392 0.48825,-0.26631 1.01349,-0.39947 1.57573,-0.39948 0.67319,1e-5 1.23172,0.18865 1.6756,0.56593 0.44386,0.3699 0.73977,0.83226 0.88773,1.38708 0.11836,0.42168 0.17754,1.23174 0.17755,2.43018 l 0,4.03919 c -10e-6,0.79896 0.0703,1.29831 0.21084,1.49805 0.14794,0.19234 0.45125,0.31441 0.90993,0.36619 l 0,0.39948 -5.24873,0 0,-0.39948 c 0.39207,-0.0518 0.67319,-0.21454 0.84334,-0.48825 0.11836,-0.18495 0.17754,-0.64361 0.17755,-1.37599 l 0,-4.61622 c -1e-5,-0.85074 -0.0333,-1.38708 -0.0999,-1.60902 -0.0666,-0.22193 -0.18125,-0.39207 -0.344,-0.51045 -0.15536,-0.12575 -0.32921,-0.18863 -0.52154,-0.18864 -0.63622,10e-6 -1.22804,0.45497 -1.77547,1.36489 l 0,5.55944 c 0,0.77677 0.0703,1.26872 0.21084,1.47586 0.14795,0.20713 0.41797,0.3366 0.81005,0.38838 l 0,0.39948 -5.24872,0 0,-0.39948 c 0.43646,-0.0444 0.74717,-0.18494 0.93212,-0.42167 0.12576,-0.16275 0.18864,-0.64361 0.18864,-1.44257 l 0,-5.85905 c 0,-0.78416 -0.074,-1.27241 -0.22193,-1.46476 -0.14056,-0.19233 -0.44017,-0.3181 -0.89883,-0.37729 l 0,-0.41058 4.22783,0"
           inkscape:connector-curvature="0" />
        <path
           id="path3135"
           style="font-variant:normal;font-weight:bold;font-stretch:normal;text-align:start;line-height:125%;writing-mode:lr-tb;text-anchor:start;fill:#4d6e93;font-family:Times New Roman;-inkscape-font-specification:Times New Roman"
           d="m 310.86494,812.68918 c -1.26503,1.11706 -2.40059,1.6756 -3.40668,1.6756 -0.59183,0 -1.08378,-0.19235 -1.47586,-0.57703 -0.39208,-0.39208 -0.58812,-0.88034 -0.58812,-1.46476 0,-0.79156 0.34029,-1.50175 1.02089,-2.13057 0.6806,-0.6362 2.16385,-1.47955 4.44977,-2.53004 l 0,-1.04309 c -10e-6,-0.78415 -0.0444,-1.27611 -0.13316,-1.47585 -0.0814,-0.20713 -0.24043,-0.38468 -0.47716,-0.53265 -0.23673,-0.15534 -0.50305,-0.23302 -0.79896,-0.23303 -0.48086,1e-5 -0.87664,0.10728 -1.18734,0.32181 -0.19235,0.13317 -0.28852,0.28852 -0.28852,0.46606 0,0.15536 0.10357,0.3477 0.31071,0.57703 0.28111,0.31811 0.42167,0.62512 0.42167,0.92102 0,0.3625 -0.13686,0.67321 -0.41057,0.93212 -0.26633,0.25153 -0.61772,0.3773 -1.05419,0.37729 -0.46606,1e-5 -0.85814,-0.14055 -1.17625,-0.42167 -0.3107,-0.28111 -0.46606,-0.61032 -0.46606,-0.98761 0,-0.53263 0.21084,-1.03938 0.63251,-1.52024 0.42168,-0.48825 1.0098,-0.86184 1.76438,-1.12077 0.75457,-0.25891 1.53873,-0.38837 2.35249,-0.38838 0.9839,1e-5 1.76067,0.21084 2.33031,0.63251 0.57701,0.41428 0.9506,0.86555 1.12076,1.35379 0.10356,0.31072 0.15534,1.0246 0.15535,2.14166 l 0,4.0281 c -1e-5,0.47346 0.0185,0.77307 0.0555,0.89883 0.037,0.11836 0.0925,0.20714 0.16645,0.26632 0.074,0.0592 0.15904,0.0888 0.25522,0.0888 0.19233,0 0.38838,-0.13686 0.58813,-0.41058 l 0.3329,0.26632 c -0.3699,0.54744 -0.75459,0.94692 -1.15406,1.19845 -0.39209,0.24412 -0.83966,0.36619 -1.3427,0.36619 -0.59183,0 -1.05419,-0.13686 -1.38708,-0.41058 -0.33291,-0.28112 -0.53635,-0.70279 -0.61032,-1.26502 m 0,-0.81006 0,-3.47326 c -0.89514,0.52525 -1.56094,1.08748 -1.9974,1.68669 -0.28852,0.39949 -0.43278,0.80267 -0.43277,1.20954 -10e-6,0.3403 0.12206,0.63991 0.36619,0.89883 0.18494,0.19975 0.44386,0.29962 0.77677,0.29961 0.36988,1e-5 0.79895,-0.20713 1.28721,-0.62141"
           inkscape:connector-curvature="0" />
        <path
           id="path3137"
           style="font-variant:normal;font-weight:bold;font-stretch:normal;text-align:start;line-height:125%;writing-mode:lr-tb;text-anchor:start;fill:#4d6e93;font-family:Times New Roman;-inkscape-font-specification:Times New Roman"
           d="m 320.56345,799.17342 0,12.89434 c -10e-6,0.73239 0.0851,1.20215 0.25522,1.40928 0.17014,0.19974 0.50304,0.31441 0.9987,0.344 l 0,0.39948 -5.60382,0 0,-0.39948 c 0.45866,-0.0148 0.79896,-0.14796 1.02089,-0.39948 0.14796,-0.17015 0.22193,-0.62141 0.22193,-1.3538 l 0,-10.74158 c 0,-0.72497 -0.0851,-1.18733 -0.25522,-1.38709 -0.17015,-0.20712 -0.49935,-0.32549 -0.9876,-0.35509 l 0,-0.41058 4.3499,0"
           inkscape:connector-curvature="0" />
        <path
           id="path3139"
           style="font-variant:normal;font-weight:bold;font-stretch:normal;text-align:start;line-height:125%;writing-mode:lr-tb;text-anchor:start;fill:#4d6e93;font-family:Times New Roman;-inkscape-font-specification:Times New Roman"
           d="m 331.59353,808.66108 -5.69259,0 c 0.0666,1.376 0.43276,2.46347 1.09857,3.26243 0.51044,0.61402 1.12446,0.92102 1.84205,0.92102 0.44386,0 0.84704,-0.12206 1.20953,-0.36619 0.36249,-0.25152 0.75087,-0.69909 1.16516,-1.3427 l 0.37728,0.24413 c -0.56224,1.14666 -1.18365,1.96041 -1.86424,2.44127 -0.6806,0.47346 -1.46847,0.71019 -2.36359,0.71019 -1.53875,0 -2.7039,-0.59183 -3.49546,-1.77547 -0.63621,-0.95431 -0.95431,-2.13796 -0.95431,-3.55094 0,-1.73108 0.46606,-3.10706 1.39818,-4.12796 0.93952,-1.02829 2.03809,-1.54243 3.29572,-1.54244 1.05047,1e-5 1.9604,0.43278 2.72978,1.29831 0.77676,0.85815 1.19473,2.13427 1.25392,3.82835 m -2.72978,-0.74347 c -10e-6,-1.19104 -0.0666,-2.0085 -0.19974,-2.45237 -0.12577,-0.44386 -0.32551,-0.78046 -0.59922,-1.0098 -0.15536,-0.13315 -0.3625,-0.19973 -0.62142,-0.19974 -0.38469,10e-6 -0.69909,0.18865 -0.94321,0.56593 -0.43648,0.65841 -0.65471,1.56094 -0.65471,2.70759 l 0,0.38839 3.0183,0"
           inkscape:connector-curvature="0" />
        <path
           id="path3141"
           style="font-variant:normal;font-weight:bold;font-stretch:normal;text-align:start;line-height:125%;writing-mode:lr-tb;text-anchor:start;fill:#4d6e93;font-family:Times New Roman;-inkscape-font-specification:Times New Roman"
           d="m 348.64914,799.17342 0,11.94003 c -10e-6,0.80636 0.0222,1.28352 0.0666,1.43147 0.0592,0.24413 0.17014,0.42538 0.3329,0.54374 0.17014,0.11836 0.46235,0.19234 0.87664,0.22193 l 0,0.36619 -4.38319,0.85445 0,-1.64231 c -0.52525,0.63621 -0.99501,1.06898 -1.40928,1.29831 -0.40688,0.22933 -0.86925,0.344 -1.38709,0.344 -1.3242,0 -2.37099,-0.59183 -3.14036,-1.77547 -0.62141,-0.96171 -0.93212,-2.14166 -0.93212,-3.53984 0,-1.11706 0.19234,-2.11576 0.57703,-2.99611 0.38468,-0.88772 0.90993,-1.55722 1.57573,-2.0085 0.67319,-0.45125 1.39448,-0.67688 2.16385,-0.67689 0.49565,1e-5 0.93582,0.0962 1.32051,0.28851 0.38467,0.19235 0.79525,0.52895 1.23173,1.0098 l 0,-3.12927 c -10e-6,-0.79155 -0.0333,-1.2687 -0.0999,-1.43147 -0.0888,-0.21452 -0.22194,-0.37357 -0.39948,-0.47715 -0.17756,-0.10356 -0.51046,-0.15534 -0.9987,-0.15536 l 0,-0.46606 4.60512,0 m -3.10707,7.0353 c -0.54745,-1.05048 -1.21694,-1.57572 -2.0085,-1.57573 -0.27372,1e-5 -0.49936,0.074 -0.6769,0.22193 -0.27372,0.22934 -0.49935,0.63252 -0.6769,1.20954 -0.17015,0.57703 -0.25522,1.46107 -0.25522,2.65211 0,1.30941 0.0962,2.27852 0.28851,2.90733 0.19234,0.62881 0.45496,1.08377 0.78787,1.36489 0.17014,0.14056 0.40317,0.21084 0.69909,0.21084 0.651,0 1.26501,-0.51045 1.84205,-1.53135 l 0,-5.45956"
           inkscape:connector-curvature="0" />
        <path
           id="path3143"
           style="font-variant:normal;font-weight:bold;font-stretch:normal;text-align:start;line-height:125%;writing-mode:lr-tb;text-anchor:start;fill:#4d6e93;font-family:Times New Roman;-inkscape-font-specification:Times New Roman"
           d="m 352.53297,806.21981 0,-0.48825 c 0.85814,-0.36988 1.47955,-0.84704 1.86424,-1.43147 0.39208,-0.59181 0.58812,-1.19843 0.58812,-1.81986 0,-0.11835 -0.0259,-0.21082 -0.0777,-0.27742 -0.0518,-0.0592 -0.10358,-0.0888 -0.15536,-0.0888 -0.0444,10e-6 -0.11097,0.0259 -0.19974,0.0777 -0.21454,0.12577 -0.48086,0.18865 -0.79896,0.18864 -0.43647,10e-6 -0.81745,-0.17014 -1.14295,-0.51045 -0.31811,-0.34028 -0.47716,-0.73976 -0.47716,-1.19844 0,-0.48824 0.18494,-0.91731 0.55483,-1.28721 0.36989,-0.36988 0.81745,-0.55482 1.3427,-0.55484 0.63621,2e-5 1.17994,0.24785 1.63121,0.74348 0.45126,0.48827 0.67689,1.16147 0.6769,2.0196 -10e-6,1.05789 -0.32181,1.99741 -0.96541,2.81855 -0.63622,0.82117 -1.58313,1.42409 -2.84075,1.80876"
           inkscape:connector-curvature="0" />
        <path
           id="path3145"
           style="font-variant:normal;font-weight:bold;font-stretch:normal;text-align:start;line-height:125%;writing-mode:lr-tb;text-anchor:start;fill:#4d6e93;font-family:Times New Roman;-inkscape-font-specification:Times New Roman"
           d="m 366.35944,813.80994 0,0.41058 -7.86755,0 0,-0.41058 0.49935,0 c 0.43647,0 0.78786,-0.0777 1.05419,-0.23303 0.19234,-0.10357 0.34029,-0.28111 0.44386,-0.53264 0.0814,-0.17754 0.12206,-0.6436 0.12207,-1.39818 l 0,-9.89824 c -10e-6,-0.76936 -0.0407,-1.25021 -0.12207,-1.44257 -0.0814,-0.19233 -0.24783,-0.35878 -0.49935,-0.49935 -0.24413,-0.14794 -0.57703,-0.22192 -0.9987,-0.22193 l -0.49935,0 0,-0.41058 7.86755,0 0,0.41058 -0.49935,0 c -0.43648,1e-5 -0.78788,0.0777 -1.05419,0.23303 -0.19235,0.10358 -0.344,0.28113 -0.45496,0.53264 -0.0814,0.17756 -0.12207,0.64362 -0.12207,1.39818 l 0,9.89824 c 0,0.76937 0.0407,1.25023 0.12207,1.44257 0.0888,0.19234 0.25521,0.36249 0.49935,0.51045 0.25152,0.14055 0.58811,0.21083 1.0098,0.21083 l 0.49935,0"
           inkscape:connector-curvature="0" />
        <path
           id="path3147"
           style="font-variant:normal;font-weight:bold;font-stretch:normal;text-align:start;line-height:125%;writing-mode:lr-tb;text-anchor:start;fill:#4d6e93;font-family:Times New Roman;-inkscape-font-specification:Times New Roman"
           d="m 371.87449,803.84512 0,1.3427 c 0.53264,-0.57702 1.04308,-0.99499 1.53134,-1.25392 0.48825,-0.26631 1.01349,-0.39947 1.57573,-0.39948 0.67319,1e-5 1.23172,0.18865 1.6756,0.56593 0.44386,0.3699 0.73977,0.83226 0.88773,1.38708 0.11836,0.42168 0.17754,1.23174 0.17755,2.43018 l 0,4.03919 c -1e-5,0.79896 0.0703,1.29831 0.21084,1.49805 0.14794,0.19234 0.45125,0.31441 0.90993,0.36619 l 0,0.39948 -5.24873,0 0,-0.39948 c 0.39207,-0.0518 0.67319,-0.21454 0.84334,-0.48825 0.11836,-0.18495 0.17754,-0.64361 0.17755,-1.37599 l 0,-4.61622 c -10e-6,-0.85074 -0.0333,-1.38708 -0.0999,-1.60902 -0.0666,-0.22193 -0.18125,-0.39207 -0.344,-0.51045 -0.15536,-0.12575 -0.3292,-0.18863 -0.52154,-0.18864 -0.63622,10e-6 -1.22804,0.45497 -1.77547,1.36489 l 0,5.55944 c 0,0.77677 0.0703,1.26872 0.21084,1.47586 0.14795,0.20713 0.41797,0.3366 0.81006,0.38838 l 0,0.39948 -5.24873,0 0,-0.39948 c 0.43646,-0.0444 0.74717,-0.18494 0.93212,-0.42167 0.12576,-0.16275 0.18864,-0.64361 0.18864,-1.44257 l 0,-5.85905 c 0,-0.78416 -0.074,-1.27241 -0.22193,-1.46476 -0.14056,-0.19233 -0.44017,-0.3181 -0.89883,-0.37729 l 0,-0.41058 4.22783,0"
           inkscape:connector-curvature="0" />
        <path
           id="path3149"
           style="font-variant:normal;font-weight:bold;font-stretch:normal;text-align:start;line-height:125%;writing-mode:lr-tb;text-anchor:start;fill:#4d6e93;font-family:Times New Roman;-inkscape-font-specification:Times New Roman"
           d="m 386.94378,803.96719 3.49545,0 0,1.22063 -1.98631,0 c 0.36249,0.3625 0.61401,0.6917 0.75458,0.98761 0.17753,0.39948 0.26631,0.81746 0.26632,1.25392 -10e-6,0.73979 -0.20715,1.38339 -0.62142,1.93082 -0.40688,0.54005 -0.96542,0.96542 -1.67559,1.27612 -0.7028,0.30331 -1.32791,0.45497 -1.87534,0.45497 -0.0444,0 -0.48826,-0.0185 -1.33161,-0.0555 -0.3329,10e-6 -0.61402,0.11097 -0.84334,0.3329 -0.22194,0.21454 -0.33291,0.47346 -0.3329,0.77677 -10e-6,0.26632 0.0999,0.48456 0.29961,0.6547 0.20713,0.17016 0.54003,0.25523 0.9987,0.25523 l 1.91972,-0.0222 c 1.55353,0 2.62251,0.17015 3.20694,0.51044 0.83594,0.47346 1.25392,1.20214 1.25393,2.18605 -10e-6,0.62881 -0.19235,1.19844 -0.57703,1.70889 -0.38469,0.51784 -0.89144,0.89882 -1.52024,1.14296 -0.95433,0.36248 -2.0529,0.54373 -3.29572,0.54373 -0.93212,0 -1.78287,-0.0925 -2.55223,-0.27741 -0.76938,-0.17756 -1.32051,-0.42908 -1.65341,-0.75458 -0.3329,-0.31811 -0.49935,-0.65471 -0.49935,-1.0098 0,-0.3403 0.12576,-0.6473 0.37729,-0.92102 0.25892,-0.26632 0.73608,-0.49196 1.43147,-0.6769 -0.96171,-0.47346 -1.44257,-1.13186 -1.44257,-1.97521 0,-0.51044 0.19604,-1.00609 0.58812,-1.48695 0.39209,-0.48086 1.0135,-0.89883 1.86425,-1.25393 -0.99131,-0.36249 -1.70889,-0.83964 -2.15276,-1.43147 -0.44387,-0.59182 -0.6658,-1.27611 -0.6658,-2.05289 0,-1.01348 0.41428,-1.89012 1.24283,-2.62991 0.82855,-0.74716 1.89383,-1.12075 3.19584,-1.12076 0.68799,10e-6 1.39818,0.14426 2.13057,0.43277 m -1.91973,0.25522 c -0.42908,10e-6 -0.79157,0.21825 -1.08748,0.65471 -0.29591,0.42908 -0.44387,1.32421 -0.44386,2.68539 -10e-6,1.10228 0.14425,1.86055 0.43277,2.27482 0.2959,0.40688 0.6436,0.61032 1.04309,0.61032 0.44386,0 0.81375,-0.20344 1.10966,-0.61032 0.29591,-0.40687 0.44386,-1.19843 0.44387,-2.37469 -1e-5,-1.32419 -0.16646,-2.22672 -0.49935,-2.70759 -0.23673,-0.35508 -0.56963,-0.53263 -0.9987,-0.53264 m -0.6547,11.52945 c -0.75458,0 -1.25393,0.0629 -1.49806,0.18865 -0.42167,0.22932 -0.63251,0.54003 -0.63251,0.93212 0,0.37728 0.21823,0.71758 0.65471,1.02089 0.43646,0.3107 1.25762,0.46606 2.46346,0.46606 1.02829,0 1.83464,-0.13686 2.41908,-0.41058 0.59181,-0.27372 0.88772,-0.6584 0.88773,-1.15405 -1e-5,-0.18495 -0.0555,-0.3403 -0.16645,-0.46606 -0.19975,-0.22194 -0.50306,-0.37359 -0.90993,-0.45496 -0.39949,-0.0814 -1.47216,-0.12207 -3.21803,-0.12207"
           inkscape:connector-curvature="0" />
        <path
           id="path3151"
           style="font-variant:normal;font-weight:bold;font-stretch:normal;text-align:start;line-height:125%;writing-mode:lr-tb;text-anchor:start;fill:#4d6e93;font-family:Times New Roman;-inkscape-font-specification:Times New Roman"
           d="m 400.43734,808.66108 -5.69259,0 c 0.0666,1.376 0.43276,2.46347 1.09857,3.26243 0.51044,0.61402 1.12446,0.92102 1.84205,0.92102 0.44386,0 0.84704,-0.12206 1.20954,-0.36619 0.36248,-0.25152 0.75086,-0.69909 1.16515,-1.3427 l 0.37728,0.24413 c -0.56224,1.14666 -1.18365,1.96041 -1.86424,2.44127 -0.6806,0.47346 -1.46846,0.71019 -2.36359,0.71019 -1.53874,0 -2.70389,-0.59183 -3.49546,-1.77547 -0.63621,-0.95431 -0.95431,-2.13796 -0.95431,-3.55094 0,-1.73108 0.46606,-3.10706 1.39818,-4.12796 0.93952,-1.02829 2.03809,-1.54243 3.29572,-1.54244 1.05048,1e-5 1.9604,0.43278 2.72978,1.29831 0.77676,0.85815 1.19473,2.13427 1.25392,3.82835 m -2.72978,-0.74347 c -10e-6,-1.19104 -0.0666,-2.0085 -0.19974,-2.45237 -0.12577,-0.44386 -0.32551,-0.78046 -0.59922,-1.0098 -0.15536,-0.13315 -0.3625,-0.19973 -0.62141,-0.19974 -0.38469,10e-6 -0.6991,0.18865 -0.94322,0.56593 -0.43648,0.65841 -0.65471,1.56094 -0.65471,2.70759 l 0,0.38839 3.0183,0 m 1.63121,-9.25464 -3.673,3.85055 -0.95431,0 1.28721,-3.85055 3.3401,0"
           inkscape:connector-curvature="0" />
        <path
           id="path3153"
           style="font-variant:normal;font-weight:bold;font-stretch:normal;text-align:start;line-height:125%;writing-mode:lr-tb;text-anchor:start;fill:#4d6e93;font-family:Times New Roman;-inkscape-font-specification:Times New Roman"
           d="m 405.9635,803.84512 0,1.3427 c 0.53263,-0.57702 1.04308,-0.99499 1.53134,-1.25392 0.48824,-0.26631 1.01349,-0.39947 1.57573,-0.39948 0.67319,1e-5 1.23172,0.18865 1.6756,0.56593 0.44385,0.3699 0.73976,0.83226 0.88773,1.38708 0.11835,0.42168 0.17754,1.23174 0.17755,2.43018 l 0,4.03919 c -10e-6,0.79896 0.0703,1.29831 0.21083,1.49805 0.14795,0.19234 0.45126,0.31441 0.90993,0.36619 l 0,0.39948 -5.24873,0 0,-0.39948 c 0.39208,-0.0518 0.67319,-0.21454 0.84335,-0.48825 0.11836,-0.18495 0.17754,-0.64361 0.17755,-1.37599 l 0,-4.61622 c -1e-5,-0.85074 -0.0333,-1.38708 -0.0999,-1.60902 -0.0666,-0.22193 -0.18126,-0.39207 -0.344,-0.51045 -0.15536,-0.12575 -0.32921,-0.18863 -0.52155,-0.18864 -0.63621,10e-6 -1.22803,0.45497 -1.77546,1.36489 l 0,5.55944 c -10e-6,0.77677 0.0703,1.26872 0.21083,1.47586 0.14795,0.20713 0.41797,0.3366 0.81006,0.38838 l 0,0.39948 -5.24873,0 0,-0.39948 c 0.43647,-0.0444 0.74718,-0.18494 0.93212,-0.42167 0.12576,-0.16275 0.18864,-0.64361 0.18865,-1.44257 l 0,-5.85905 c -1e-5,-0.78416 -0.074,-1.27241 -0.22194,-1.46476 -0.14056,-0.19233 -0.44017,-0.3181 -0.89883,-0.37729 l 0,-0.41058 4.22784,0"
           inkscape:connector-curvature="0" />
        <path
           id="path3155"
           style="font-variant:normal;font-weight:bold;font-stretch:normal;text-align:start;line-height:125%;writing-mode:lr-tb;text-anchor:start;fill:#4d6e93;font-family:Times New Roman;-inkscape-font-specification:Times New Roman"
           d="m 416.87152,798.81833 c 0.48086,1e-5 0.88773,0.17016 1.22064,0.51044 0.33289,0.33292 0.49934,0.7361 0.49935,1.20954 -1e-5,0.47347 -0.17015,0.87665 -0.51045,1.20954 -0.3329,0.33291 -0.73608,0.49936 -1.20954,0.49935 -0.47346,10e-6 -0.87664,-0.16644 -1.20953,-0.49935 -0.33291,-0.33289 -0.49936,-0.73607 -0.49935,-1.20954 -1e-5,-0.47344 0.16644,-0.87662 0.49935,-1.20954 0.33289,-0.34028 0.73607,-0.51043 1.20953,-0.51044 m 1.55354,5.02679 0,8.22264 c -10e-6,0.73239 0.0851,1.20215 0.25522,1.40928 0.17015,0.19974 0.50305,0.31441 0.9987,0.344 l 0,0.39948 -5.60382,0 0,-0.39948 c 0.45866,-0.0148 0.79896,-0.14796 1.0209,-0.39948 0.14795,-0.17015 0.22193,-0.62141 0.22193,-1.3538 l 0,-6.05878 c 0,-0.73238 -0.0851,-1.19844 -0.25522,-1.39819 -0.17015,-0.20712 -0.49936,-0.32549 -0.98761,-0.35509 l 0,-0.41058 4.3499,0"
           inkscape:connector-curvature="0" />
        <path
           id="path3157"
           style="font-variant:normal;font-weight:bold;font-stretch:normal;text-align:start;line-height:125%;writing-mode:lr-tb;text-anchor:start;fill:#4d6e93;font-family:Times New Roman;-inkscape-font-specification:Times New Roman"
           d="m 429.46626,808.66108 -5.6926,0 c 0.0666,1.376 0.43277,2.46347 1.09857,3.26243 0.51045,0.61402 1.12446,0.92102 1.84205,0.92102 0.44386,0 0.84704,-0.12206 1.20954,-0.36619 0.36248,-0.25152 0.75087,-0.69909 1.16515,-1.3427 l 0.37729,0.24413 c -0.56224,1.14666 -1.18365,1.96041 -1.86424,2.44127 -0.68061,0.47346 -1.46847,0.71019 -2.3636,0.71019 -1.53874,0 -2.70389,-0.59183 -3.49545,-1.77547 -0.63621,-0.95431 -0.95432,-2.13796 -0.95431,-3.55094 -10e-6,-1.73108 0.46605,-3.10706 1.39818,-4.12796 0.93951,-1.02829 2.03808,-1.54243 3.29571,-1.54244 1.05048,1e-5 1.96041,0.43278 2.72978,1.29831 0.77676,0.85815 1.19474,2.13427 1.25393,3.82835 m -2.72978,-0.74347 c -10e-6,-1.19104 -0.0666,-2.0085 -0.19974,-2.45237 -0.12577,-0.44386 -0.32551,-0.78046 -0.59922,-1.0098 -0.15536,-0.13315 -0.3625,-0.19973 -0.62142,-0.19974 -0.38469,10e-6 -0.69909,0.18865 -0.94322,0.56593 -0.43647,0.65841 -0.6547,1.56094 -0.6547,2.70759 l 0,0.38839 3.0183,0"
           inkscape:connector-curvature="0" />
        <path
           id="path3159"
           style="font-variant:normal;font-weight:bold;font-stretch:normal;text-align:start;line-height:125%;writing-mode:lr-tb;text-anchor:start;fill:#4d6e93;font-family:Times New Roman;-inkscape-font-specification:Times New Roman"
           d="m 440.77378,803.84512 0,8.12277 c -10e-6,0.79157 0.074,1.28722 0.22194,1.48696 0.14794,0.19234 0.44755,0.31441 0.89883,0.36619 l 0,0.39948 -4.22784,0 0,-1.38709 c -0.49566,0.59183 -0.99131,1.0246 -1.48695,1.29832 -0.49566,0.26632 -1.05049,0.39948 -1.66451,0.39948 -0.58443,0 -1.10597,-0.17755 -1.56463,-0.53264 -0.45127,-0.36249 -0.75457,-0.78417 -0.90993,-1.26503 -0.15535,-0.48085 -0.23303,-1.3205 -0.23303,-2.51894 l 0,-4.11687 c 0,-0.78416 -0.074,-1.27241 -0.22193,-1.46476 -0.14056,-0.19233 -0.44017,-0.3181 -0.89883,-0.37729 l 0,-0.41058 4.22783,0 0,7.09078 c 0,0.73978 0.0333,1.21694 0.0999,1.43147 0.074,0.21454 0.18494,0.37729 0.3329,0.48826 0.15535,0.11097 0.3329,0.16645 0.53265,0.16645 0.26631,0 0.50674,-0.0703 0.72128,-0.21084 0.2959,-0.19234 0.651,-0.58072 1.06528,-1.16515 l 0,-5.54834 c -1e-5,-0.78416 -0.074,-1.27241 -0.22193,-1.46476 -0.14057,-0.19233 -0.44018,-0.3181 -0.89883,-0.37729 l 0,-0.41058 4.22783,0"
           inkscape:connector-curvature="0" />
        <path
           id="path3161"
           style="font-variant:normal;font-weight:bold;font-stretch:normal;text-align:start;line-height:125%;writing-mode:lr-tb;text-anchor:start;fill:#4d6e93;font-family:Times New Roman;-inkscape-font-specification:Times New Roman"
           d="m 447.7092,803.84512 0,2.3525 c 0.68799,-1.07267 1.29091,-1.78286 1.80876,-2.13056 0.51784,-0.35509 1.01719,-0.53263 1.49805,-0.53264 0.41427,1e-5 0.74347,0.12947 0.9876,0.38838 0.25152,0.25154 0.37728,0.61033 0.37729,1.07638 -10e-6,0.49566 -0.12207,0.88034 -0.36619,1.15405 -0.23674,0.27373 -0.52525,0.41059 -0.86554,0.41058 -0.39209,10e-6 -0.73239,-0.12575 -1.02089,-0.37729 -0.28853,-0.25151 -0.45867,-0.39207 -0.51045,-0.42167 -0.074,-0.0444 -0.15906,-0.0666 -0.25523,-0.0666 -0.21454,10e-6 -0.41798,0.0814 -0.61031,0.24413 -0.30332,0.25153 -0.53265,0.61032 -0.688,1.07637 -0.23673,0.7176 -0.3551,1.50916 -0.35509,2.37469 l 0,2.38579 0.0111,0.62141 c -1e-5,0.42168 0.0259,0.6917 0.0777,0.81006 0.0888,0.19974 0.21823,0.3477 0.38839,0.44387 0.17754,0.0888 0.47345,0.14426 0.88773,0.16645 l 0,0.39948 -5.60382,0 0,-0.39948 c 0.45126,-0.037 0.75457,-0.15905 0.90992,-0.36619 0.16275,-0.21454 0.24413,-0.77307 0.24413,-1.6756 l 0,-5.73698 c 0,-0.59182 -0.0296,-0.9691 -0.0888,-1.13186 -0.074,-0.20713 -0.18125,-0.35879 -0.32181,-0.45497 -0.14056,-0.0962 -0.38838,-0.16274 -0.74347,-0.19974 l 0,-0.41058 4.23893,0"
           inkscape:connector-curvature="0" />
        <path
           id="path3163"
           style="font-variant:normal;font-weight:bold;font-stretch:normal;text-align:start;line-height:125%;writing-mode:lr-tb;text-anchor:start;fill:#4d6e93;font-family:Times New Roman;-inkscape-font-specification:Times New Roman"
           d="m 460.03763,803.55661 0.16645,3.53984 -0.37729,0 c -0.45127,-1.05048 -0.92103,-1.76806 -1.40927,-2.15275 -0.48087,-0.38468 -0.96172,-0.57702 -1.44257,-0.57703 -0.30332,10e-6 -0.56224,0.10358 -0.77677,0.3107 -0.21454,0.19975 -0.32181,0.43278 -0.3218,0.6991 -10e-6,0.19974 0.074,0.39209 0.22193,0.57702 0.23672,0.30332 0.89883,0.82486 1.9863,1.56463 1.08747,0.73239 1.80136,1.3575 2.14166,1.87534 0.34769,0.51046 0.52154,1.08378 0.52155,1.71999 -10e-6,0.57703 -0.14427,1.14296 -0.43277,1.69779 -0.28852,0.55484 -0.6954,0.98021 -1.22064,1.27612 -0.52525,0.29591 -1.10597,0.44387 -1.74218,0.44387 -0.49565,0 -1.15775,-0.15536 -1.9863,-0.46606 -0.22194,-0.0814 -0.37359,-0.12207 -0.45497,-0.12207 -0.24412,0 -0.44756,0.18495 -0.61031,0.55484 l -0.36619,0 -0.17755,-3.72849 0.37729,0 c 0.3329,0.97651 0.78786,1.70889 1.36489,2.19715 0.58442,0.48825 1.13555,0.73238 1.6534,0.73238 0.35509,0 0.64361,-0.10727 0.86554,-0.32181 0.22933,-0.22193 0.344,-0.48825 0.344,-0.79896 0,-0.35509 -0.11097,-0.6621 -0.3329,-0.92102 -0.22194,-0.25892 -0.71759,-0.65101 -1.48695,-1.17625 -1.13187,-0.78416 -1.86425,-1.38338 -2.19715,-1.79766 -0.48825,-0.60662 -0.73238,-1.27612 -0.73238,-2.0085 0,-0.79896 0.27372,-1.52024 0.82116,-2.16386 0.55483,-0.65099 1.35379,-0.97649 2.39688,-0.9765 0.56223,1e-5 1.10596,0.13687 1.63121,0.41057 0.19974,0.11098 0.36249,0.16646 0.48826,0.16645 0.13315,10e-6 0.24042,-0.0259 0.3218,-0.0777 0.0814,-0.0592 0.21083,-0.21823 0.38838,-0.47716 l 0.37729,0"
           inkscape:connector-curvature="0" />
        <path
           id="path3165"
           style="font-variant:normal;font-weight:bold;font-stretch:normal;text-align:start;line-height:125%;writing-mode:lr-tb;text-anchor:start;fill:#4d6e93;font-family:Times New Roman;-inkscape-font-specification:Times New Roman"
           d="m 478.08081,799.17342 0,11.94003 c -10e-6,0.80636 0.0222,1.28352 0.0666,1.43147 0.0592,0.24413 0.17014,0.42538 0.3329,0.54374 0.17014,0.11836 0.46235,0.19234 0.87664,0.22193 l 0,0.36619 -4.38319,0.85445 0,-1.64231 c -0.52525,0.63621 -0.99501,1.06898 -1.40928,1.29831 -0.40688,0.22933 -0.86924,0.344 -1.38708,0.344 -1.32421,0 -2.371,-0.59183 -3.14036,-1.77547 -0.62142,-0.96171 -0.93213,-2.14166 -0.93213,-3.53984 0,-1.11706 0.19235,-2.11576 0.57703,-2.99611 0.38468,-0.88772 0.90993,-1.55722 1.57573,-2.0085 0.67319,-0.45125 1.39448,-0.67688 2.16385,-0.67689 0.49565,1e-5 0.93582,0.0962 1.32051,0.28851 0.38468,0.19235 0.79525,0.52895 1.23173,1.0098 l 0,-3.12927 c -1e-5,-0.79155 -0.0333,-1.2687 -0.0999,-1.43147 -0.0888,-0.21452 -0.22194,-0.37357 -0.39948,-0.47715 -0.17756,-0.10356 -0.51046,-0.15534 -0.9987,-0.15536 l 0,-0.46606 4.60512,0 m -3.10707,7.0353 c -0.54744,-1.05048 -1.21694,-1.57572 -2.0085,-1.57573 -0.27372,1e-5 -0.49936,0.074 -0.6769,0.22193 -0.27372,0.22934 -0.49935,0.63252 -0.67689,1.20954 -0.17016,0.57703 -0.25523,1.46107 -0.25523,2.65211 0,1.30941 0.0962,2.27852 0.28852,2.90733 0.19233,0.62881 0.45495,1.08377 0.78786,1.36489 0.17014,0.14056 0.40317,0.21084 0.69909,0.21084 0.651,0 1.26501,-0.51045 1.84205,-1.53135 l 0,-5.45956"
           inkscape:connector-curvature="0" />
        <path
           id="path3167"
           style="font-variant:normal;font-weight:bold;font-stretch:normal;text-align:start;line-height:125%;writing-mode:lr-tb;text-anchor:start;fill:#4d6e93;font-family:Times New Roman;-inkscape-font-specification:Times New Roman"
           d="m 489.43274,808.66108 -5.6926,0 c 0.0666,1.376 0.43277,2.46347 1.09857,3.26243 0.51044,0.61402 1.12446,0.92102 1.84205,0.92102 0.44386,0 0.84704,-0.12206 1.20954,-0.36619 0.36248,-0.25152 0.75086,-0.69909 1.16515,-1.3427 l 0.37729,0.24413 c -0.56224,1.14666 -1.18366,1.96041 -1.86425,2.44127 -0.6806,0.47346 -1.46846,0.71019 -2.36359,0.71019 -1.53874,0 -2.70389,-0.59183 -3.49545,-1.77547 -0.63621,-0.95431 -0.95432,-2.13796 -0.95432,-3.55094 0,-1.73108 0.46606,-3.10706 1.39818,-4.12796 0.93952,-1.02829 2.03809,-1.54243 3.29572,-1.54244 1.05048,1e-5 1.9604,0.43278 2.72978,1.29831 0.77676,0.85815 1.19473,2.13427 1.25393,3.82835 m -2.72979,-0.74347 c 0,-1.19104 -0.0666,-2.0085 -0.19974,-2.45237 -0.12577,-0.44386 -0.32551,-0.78046 -0.59922,-1.0098 -0.15536,-0.13315 -0.3625,-0.19973 -0.62141,-0.19974 -0.38469,10e-6 -0.6991,0.18865 -0.94322,0.56593 -0.43647,0.65841 -0.65471,1.56094 -0.6547,2.70759 l 0,0.38839 3.01829,0"
           inkscape:connector-curvature="0" />
        <path
           id="path3169"
           style="font-variant:normal;font-weight:bold;font-stretch:normal;text-align:start;line-height:125%;writing-mode:lr-tb;text-anchor:start;fill:#4d6e93;font-family:Times New Roman;-inkscape-font-specification:Times New Roman"
           d="m 506.31076,798.82942 0.12207,5.0157 -0.45497,0 c -0.21454,-1.25761 -0.74348,-2.26741 -1.58682,-3.02939 -0.83596,-0.76936 -1.74219,-1.15404 -2.71869,-1.15405 -0.75458,10e-6 -1.3538,0.20345 -1.79766,0.61031 -0.43647,0.3995 -0.65471,0.86186 -0.6547,1.38709 -10e-6,0.33291 0.0777,0.62882 0.23303,0.88773 0.21453,0.34771 0.55852,0.69171 1.03199,1.03199 0.34769,0.24414 1.15035,0.67691 2.40798,1.29832 1.76066,0.86554 2.948,1.683 3.56203,2.45236 0.60661,0.76938 0.90992,1.64971 0.90993,2.64101 -1e-5,1.25763 -0.49197,2.3414 -1.47586,3.25133 -0.97652,0.90253 -2.21934,1.35379 -3.72848,1.35379 -0.47347,0 -0.92103,-0.0481 -1.3427,-0.14425 -0.42168,-0.0962 -0.95062,-0.27742 -1.58683,-0.54374 -0.3551,-0.14796 -0.64731,-0.22193 -0.87664,-0.22193 -0.19234,0 -0.39578,0.074 -0.61031,0.22193 -0.21454,0.14796 -0.38839,0.37359 -0.52155,0.6769 l -0.41057,0 0,-5.6815 0.41057,0 c 0.3255,1.59792 0.95062,2.81856 1.87534,3.6619 0.93212,0.83595 1.93452,1.25393 3.0072,1.25393 0.82855,0 1.48695,-0.22564 1.97521,-0.6769 0.49564,-0.45126 0.74347,-0.97651 0.74348,-1.57573 -10e-6,-0.35509 -0.0962,-0.69909 -0.28851,-1.03199 -0.18496,-0.3329 -0.46977,-0.6473 -0.85445,-0.94322 -0.38469,-0.3033 -1.06529,-0.69539 -2.04179,-1.17625 -1.36859,-0.67319 -2.3525,-1.24652 -2.95172,-1.71998 -0.59922,-0.47345 -1.06158,-1.00239 -1.38708,-1.58683 -0.31811,-0.58441 -0.47716,-1.22802 -0.47716,-1.93082 0,-1.19843 0.44017,-2.21932 1.32051,-3.06268 0.88033,-0.84334 1.99,-1.26501 3.329,-1.26503 0.48825,2e-5 0.96171,0.0592 1.42038,0.17755 0.34768,0.0888 0.76936,0.25524 1.26502,0.49935 0.50304,0.23675 0.85443,0.35511 1.05418,0.3551 0.19234,1e-5 0.34399,-0.0592 0.45497,-0.17755 0.11095,-0.11835 0.21452,-0.40317 0.3107,-0.85445 l 0.3329,0"
           inkscape:connector-curvature="0" />
        <path
           id="path3171"
           style="font-variant:normal;font-weight:bold;font-stretch:normal;text-align:start;line-height:125%;writing-mode:lr-tb;text-anchor:start;fill:#4d6e93;font-family:Times New Roman;-inkscape-font-specification:Times New Roman"
           d="m 513.9453,803.53442 c 0.90253,1e-5 1.74217,0.23304 2.51895,0.69909 0.77676,0.46607 1.36488,1.12817 1.76437,1.9863 0.40687,0.85815 0.61031,1.79767 0.61032,2.81856 -10e-6,1.47216 -0.3736,2.70389 -1.12077,3.69519 -0.90253,1.19845 -2.14906,1.79767 -3.73958,1.79767 -1.56093,0 -2.76307,-0.54744 -3.60642,-1.64231 -0.84335,-1.09487 -1.26502,-2.36359 -1.26502,-3.80616 0,-1.48695 0.42907,-2.78156 1.28721,-3.88384 0.86554,-1.10966 2.04919,-1.66449 3.55094,-1.6645 m 0.0444,0.78786 c -0.37729,10e-6 -0.7028,0.14427 -0.97651,0.43277 -0.26632,0.28113 -0.44387,0.84336 -0.53264,1.6867 -0.0814,0.83595 -0.12207,2.0011 -0.12206,3.49545 -10e-6,0.79157 0.0518,1.53135 0.15535,2.21934 0.0814,0.52524 0.25522,0.92472 0.52154,1.19844 0.26632,0.27372 0.56963,0.41058 0.90993,0.41058 0.3329,0 0.61031,-0.0925 0.83225,-0.27742 0.28851,-0.25152 0.48085,-0.60292 0.57703,-1.05419 0.14795,-0.70278 0.22193,-2.12316 0.22193,-4.26112 0,-1.25762 -0.0703,-2.11946 -0.21083,-2.58553 -0.14057,-0.47345 -0.34771,-0.81744 -0.62142,-1.03199 -0.19235,-0.15534 -0.44387,-0.23302 -0.75457,-0.23303"
           inkscape:connector-curvature="0" />
        <path
           id="path3173"
           style="font-variant:normal;font-weight:bold;font-stretch:normal;text-align:start;line-height:125%;writing-mode:lr-tb;text-anchor:start;fill:#4d6e93;font-family:Times New Roman;-inkscape-font-specification:Times New Roman"
           d="m 530.43495,803.84512 0,8.12277 c -2e-5,0.79157 0.074,1.28722 0.22193,1.48696 0.14794,0.19234 0.44755,0.31441 0.89883,0.36619 l 0,0.39948 -4.22784,0 0,-1.38709 c -0.49565,0.59183 -0.99131,1.0246 -1.48695,1.29832 -0.49566,0.26632 -1.05049,0.39948 -1.6645,0.39948 -0.58443,0 -1.10598,-0.17755 -1.56463,-0.53264 -0.45127,-0.36249 -0.75458,-0.78417 -0.90993,-1.26503 -0.15536,-0.48085 -0.23303,-1.3205 -0.23303,-2.51894 l 0,-4.11687 c 0,-0.78416 -0.074,-1.27241 -0.22194,-1.46476 -0.14056,-0.19233 -0.44017,-0.3181 -0.89883,-0.37729 l 0,-0.41058 4.22784,0 0,7.09078 c -1e-5,0.73978 0.0333,1.21694 0.0999,1.43147 0.074,0.21454 0.18494,0.37729 0.3329,0.48826 0.15535,0.11097 0.33289,0.16645 0.53264,0.16645 0.26631,0 0.50674,-0.0703 0.72128,-0.21084 0.29591,-0.19234 0.651,-0.58072 1.06528,-1.16515 l 0,-5.54834 c 0,-0.78416 -0.074,-1.27241 -0.22193,-1.46476 -0.14056,-0.19233 -0.44017,-0.3181 -0.89883,-0.37729 l 0,-0.41058 4.22784,0"
           inkscape:connector-curvature="0" />
        <path
           id="path3175"
           style="font-variant:normal;font-weight:bold;font-stretch:normal;text-align:start;line-height:125%;writing-mode:lr-tb;text-anchor:start;fill:#4d6e93;font-family:Times New Roman;-inkscape-font-specification:Times New Roman"
           d="m 539.62302,803.55661 0.16645,3.53984 -0.37729,0 c -0.45127,-1.05048 -0.92103,-1.76806 -1.40928,-2.15275 -0.48086,-0.38468 -0.96171,-0.57702 -1.44257,-0.57703 -0.30331,10e-6 -0.56223,0.10358 -0.77676,0.3107 -0.21454,0.19975 -0.32181,0.43278 -0.32181,0.6991 0,0.19974 0.074,0.39209 0.22194,0.57702 0.23672,0.30332 0.89882,0.82486 1.9863,1.56463 1.08747,0.73239 1.80136,1.3575 2.14166,1.87534 0.34769,0.51046 0.52154,1.08378 0.52155,1.71999 -10e-6,0.57703 -0.14427,1.14296 -0.43277,1.69779 -0.28853,0.55484 -0.6954,0.98021 -1.22064,1.27612 -0.52525,0.29591 -1.10597,0.44387 -1.74218,0.44387 -0.49565,0 -1.15776,-0.15536 -1.9863,-0.46606 -0.22194,-0.0814 -0.37359,-0.12207 -0.45497,-0.12207 -0.24413,0 -0.44757,0.18495 -0.61032,0.55484 l -0.36619,0 -0.17754,-3.72849 0.37728,0 c 0.3329,0.97651 0.78787,1.70889 1.3649,2.19715 0.58442,0.48825 1.13555,0.73238 1.6534,0.73238 0.35509,0 0.6436,-0.10727 0.86554,-0.32181 0.22933,-0.22193 0.34399,-0.48825 0.344,-0.79896 -10e-6,-0.35509 -0.11097,-0.6621 -0.3329,-0.92102 -0.22194,-0.25892 -0.71759,-0.65101 -1.48696,-1.17625 -1.13186,-0.78416 -1.86424,-1.38338 -2.19714,-1.79766 -0.48825,-0.60662 -0.73238,-1.27612 -0.73238,-2.0085 0,-0.79896 0.27372,-1.52024 0.82116,-2.16386 0.55483,-0.65099 1.35379,-0.97649 2.39688,-0.9765 0.56223,1e-5 1.10596,0.13687 1.63121,0.41057 0.19973,0.11098 0.36249,0.16646 0.48825,0.16645 0.13316,10e-6 0.24043,-0.0259 0.32181,-0.0777 0.0814,-0.0592 0.21083,-0.21823 0.38838,-0.47716 l 0.37729,0"
           inkscape:connector-curvature="0" />
        <path
           id="path3177"
           style="font-variant:normal;font-weight:bold;font-stretch:normal;text-align:start;line-height:125%;writing-mode:lr-tb;text-anchor:start;fill:#4d6e93;font-family:Times New Roman;-inkscape-font-specification:Times New Roman"
           d="m 548.45597,803.55661 0.16645,3.53984 -0.37729,0 c -0.45127,-1.05048 -0.92103,-1.76806 -1.40928,-2.15275 -0.48086,-0.38468 -0.96172,-0.57702 -1.44257,-0.57703 -0.30331,10e-6 -0.56223,0.10358 -0.77677,0.3107 -0.21454,0.19975 -0.3218,0.43278 -0.3218,0.6991 0,0.19974 0.074,0.39209 0.22193,0.57702 0.23673,0.30332 0.89883,0.82486 1.98631,1.56463 1.08747,0.73239 1.80135,1.3575 2.14166,1.87534 0.34769,0.51046 0.52154,1.08378 0.52154,1.71999 0,0.57703 -0.14426,1.14296 -0.43277,1.69779 -0.28852,0.55484 -0.6954,0.98021 -1.22063,1.27612 -0.52525,0.29591 -1.10598,0.44387 -1.74218,0.44387 -0.49566,0 -1.15776,-0.15536 -1.98631,-0.46606 -0.22193,-0.0814 -0.37359,-0.12207 -0.45496,-0.12207 -0.24413,0 -0.44757,0.18495 -0.61032,0.55484 l -0.36619,0 -0.17755,-3.72849 0.37729,0 c 0.3329,0.97651 0.78786,1.70889 1.36489,2.19715 0.58442,0.48825 1.13556,0.73238 1.65341,0.73238 0.35509,0 0.6436,-0.10727 0.86554,-0.32181 0.22933,-0.22193 0.34399,-0.48825 0.344,-0.79896 -10e-6,-0.35509 -0.11098,-0.6621 -0.3329,-0.92102 -0.22194,-0.25892 -0.71759,-0.65101 -1.48696,-1.17625 -1.13186,-0.78416 -1.86424,-1.38338 -2.19714,-1.79766 -0.48826,-0.60662 -0.73238,-1.27612 -0.73238,-2.0085 0,-0.79896 0.27371,-1.52024 0.82115,-2.16386 0.55483,-0.65099 1.35379,-0.97649 2.39688,-0.9765 0.56223,1e-5 1.10597,0.13687 1.63122,0.41057 0.19973,0.11098 0.36248,0.16646 0.48825,0.16645 0.13315,10e-6 0.24042,-0.0259 0.3218,-0.0777 0.0814,-0.0592 0.21083,-0.21823 0.38839,-0.47716 l 0.37729,0"
           inkscape:connector-curvature="0" />
        <path
           id="path3179"
           style="font-variant:normal;font-weight:bold;font-stretch:normal;text-align:start;line-height:125%;writing-mode:lr-tb;text-anchor:start;fill:#4d6e93;font-family:Times New Roman;-inkscape-font-specification:Times New Roman"
           d="m 559.51935,808.66108 -5.6926,0 c 0.0666,1.376 0.43276,2.46347 1.09857,3.26243 0.51044,0.61402 1.12446,0.92102 1.84205,0.92102 0.44386,0 0.84704,-0.12206 1.20954,-0.36619 0.36248,-0.25152 0.75086,-0.69909 1.16515,-1.3427 l 0.37729,0.24413 c -0.56225,1.14666 -1.18366,1.96041 -1.86425,2.44127 -0.6806,0.47346 -1.46846,0.71019 -2.36359,0.71019 -1.53874,0 -2.70389,-0.59183 -3.49545,-1.77547 -0.63622,-0.95431 -0.95432,-2.13796 -0.95432,-3.55094 0,-1.73108 0.46606,-3.10706 1.39818,-4.12796 0.93952,-1.02829 2.03809,-1.54243 3.29572,-1.54244 1.05048,1e-5 1.9604,0.43278 2.72978,1.29831 0.77676,0.85815 1.19473,2.13427 1.25393,3.82835 m -2.72979,-0.74347 c -1e-5,-1.19104 -0.0666,-2.0085 -0.19974,-2.45237 -0.12577,-0.44386 -0.32551,-0.78046 -0.59922,-1.0098 -0.15536,-0.13315 -0.3625,-0.19973 -0.62141,-0.19974 -0.38469,10e-6 -0.6991,0.18865 -0.94322,0.56593 -0.43647,0.65841 -0.65471,1.56094 -0.65471,2.70759 l 0,0.38839 3.0183,0"
           inkscape:connector-curvature="0" />
      </g>
      <path
         inkscape:connector-curvature="0"
         id="path3053"
         d="m 176.78957,800.8342 368.70567,0"
         style="fill:none;stroke:#007eff;stroke-width:6;stroke-linecap:butt;stroke-linejoin:miter;stroke-opacity:1" />
    </g>
  </g>
  <g
     inkscape:groupmode="layer"
     id="layer3"
     inkscape:label="Logo"
     transform="translate(-101.5625,-192.75)">
    <path
       id="path3002"
       style="fill:#003552;fill-opacity:1;stroke:none"
       d="M 370.71429,202.36218 C 355,246.6479 319.61748,303.9133 288.90319,342.48473 c -30.71428,38.57143 -74.04061,78.8314 -105.82633,105.0814 81.25001,-28.39285 163.35171,-28.60206 193.35171,-27.17349 30,1.42857 130,10.18383 168.21429,34.46954 -75,-42.14286 -163.59681,-59.49492 -272.16824,-52.35206 40.71429,-39.28572 81.81109,-108.32633 96.81109,-134.7549 C 388.21429,304.89808 473.57143,409.1479 549.28572,449.1479 479.63828,406.1361 380.30658,265.1849 370.35714,202.71932"
       inkscape:connector-curvature="0"
       sodipodi:nodetypes="cscsccccc" />
    <path
       style="fill:#003552;fill-opacity:1;stroke:none"
       d="m 306.96011,334.14372 c -1.2627,5.3033 2.0203,10.6066 7.3236,16.16244 5.3033,5.55584 53.28555,40.91118 53.28555,40.91118 0,0 -29.7995,-38.00699 -35.98669,-43.81537 -6.18718,-5.80837 -19.31916,-20.32932 -24.62246,-13.25825 z"
       id="path3005"
       inkscape:connector-curvature="0" />
    <path
       style="fill:#80b5d1;fill-opacity:1;stroke:none"
       d="M 356.71367,425.85977 C 295.51879,427.79665 242.38808,430.67373 193.34375,453 c 5.1399,3.68046 10.11635,7.3107 14.96875,10.90625 150.91958,-48.71962 254.97711,-22.49483 331.375,-3 -78.83925,-27.22677 -121.77895,-36.98336 -182.97383,-35.04648 z"
       id="path3007"
       inkscape:connector-curvature="0"
       sodipodi:nodetypes="zcccz" />
    <path
       style="fill:#80b4d2;fill-opacity:1;stroke:none"
       d="m 396.78125,443.03125 c -75.74289,0.74986 -147.27678,18.47322 -172.5,30.75 -0.61306,0.29839 -1.1663,0.58462 -1.75,0.875 16.76059,12.93999 31.73478,25.53851 45.15625,38.3125 37.95899,-20.58233 171.19569,-65.81693 260.875,-48.09375 -39.375,-16.60714 -86.33552,-22.29367 -131.78125,-21.84375 z"
       id="path3011"
       inkscape:connector-curvature="0" />
    <path
       style="fill:#80bad3;fill-opacity:1;stroke:none"
       d="m 505.5625,463.03125 c -37.2256,-0.0748 -94.76339,8.0134 -123.78125,14.6875 C 346.06697,485.93304 296.41964,507 281.0625,519.5 c -1.29934,1.05761 -2.49961,2.04908 -3.65625,3.03125 13.08579,13.31021 24.60839,26.95895 34.90625,41.53125 16.77074,-12.99089 45.83489,-34.51295 72.34375,-49.1875 40,-22.14286 101.07143,-43.24107 125,-41.8125 -16.78572,3.57143 -60.38393,20.36161 -81.8125,30.71875 -21.2441,10.26799 -92.28246,55.63918 -108.46875,70.6875 14.8069,22.8733 26.94401,48.20735 37.46875,78.0625 4.48683,-18.03184 41.06757,-70.93484 54.59375,-90.15625 13.57143,-19.28571 59.62946,-67.16965 117.84375,-96.8125 L 527.5,464.5 c -5.82589,-1.00446 -13.34698,-1.45149 -21.9375,-1.46875 z m -149.21875,190.75 c -0.95583,0.42193 -1.93574,0.83622 -2.9375,1.21875 1.348,0.13215 2.35075,-0.25757 2.9375,-1.21875 z"
       id="path3015"
       inkscape:connector-curvature="0" />
  </g>
</svg>
